<svg xmlns="http://www.w3.org/2000/svg" viewBox="0 0 500 500"><title>edit</title><g id="title_icon"><path d="M416.31,147.38l-8.6,8.68-.54-.54-44.24-44.24,8.64-8.64a15.85,15.85,0,0,1,22.37,0L416.31,125A15.87,15.87,0,0,1,416.31,147.38Z" style="fill:currentColor"/><path d="M399.59,164.22C294.93,269.71,225.53,339.09,209.16,354.53a75.3,75.3,0,0,1-12.17,9,108,108,0,0,1-11,5.74L150,333.37A104.91,104.91,0,0,1,155,323a76.29,76.29,0,0,1,9.38-13.21L354.79,119.42l.4.4,44.34,44.34Z" style="fill:currentColor"/><path d="M139.81,346l34.47,34.58c-4.67,1.23-11,2.82-18.61,4.5-21.53,4.79-24.15,3.92-25.5,2.42-1.65-1.82-1.5-4.67,4.66-25.33C136.78,355.67,138.5,350.15,139.81,346Z" style="fill:currentColor"/></g></svg>
