<svg id="hubspotId" data-name="Layer 1" xmlns="http://www.w3.org/2000/svg" viewBox="0 0 149.39 165.93"><title>hubspot</title><g id="Layer_2" data-name="Layer 2"><g id="Layer_1-2" data-name="Layer 1-2"><path d="M149.29,98.68a41,41,0,0,0-15.49-5.39V73.22a14.76,14.76,0,0,0,9.12-13.89,15.17,15.17,0,1,0-30.33-.71v.71a14.77,14.77,0,0,0,9.14,13.89V93.29A41.75,41.75,0,0,0,108,97.55c-8.73-6.63-37.47-28.4-54.23-41.11A16.61,16.61,0,0,0,54.47,52,16.93,16.93,0,1,0,37.52,68.89a16.74,16.74,0,0,0,8.68-2.46l3.55,2.68,48.54,35a40,40,0,0,0-6.72,8.05,37.41,37.41,0,0,0-6.06,20.24v1.53A42.36,42.36,0,0,0,88,148.58a38.22,38.22,0,0,0,6.21,10.94L78.06,175.66A13.05,13.05,0,1,0,86,184l16.67-16.67a42.71,42.71,0,0,0,7.41,4A43.27,43.27,0,0,0,127.4,175h1.16a41.62,41.62,0,0,0,35.35-19.53A38.28,38.28,0,0,0,170,134.83v-.36a40.54,40.54,0,0,0-5.45-20.59A42,42,0,0,0,149.29,98.68Zm-5.13,49.93c-4.52,5-9.72,7.88-15.62,7.88h-1a20.76,20.76,0,0,1-9.86-2.37,22.64,22.64,0,0,1-8.69-7.74,18.06,18.06,0,0,1-3.66-10.58v-1.16A22,22,0,0,1,108,124a23.26,23.26,0,0,1,8.08-8.84,19.8,19.8,0,0,1,11.18-3.39h.38a22.6,22.6,0,0,1,10.46,2.44,22.25,22.25,0,0,1,8.24,7.5A23.84,23.84,0,0,1,150,132.22c.06.79.09,1.48.09,2.25C150.07,139.62,148.1,144.28,144.16,148.61Z" transform="translate(-20.61 -35.03)" style="fill:#f7751f"/></g></g></svg>
