<?xml version="1.0" encoding="utf-8"?>
<!-- Generator: Adobe Illustrator 23.1.1, SVG Export Plug-In . SVG Version: 6.00 Build 0)  -->
<svg version="1.1" id="Layer_1" xmlns="http://www.w3.org/2000/svg" xmlns:xlink="http://www.w3.org/1999/xlink" x="0px" y="0px"
	 viewBox="0 0 25 24" style="enable-background:new 0 0 25 24;" xml:space="preserve">
<title>noun_Share_691096</title>
<desc>Created with Sketch.</desc>
  <g id="Polished-Version-Video-Editor">
    <path style="fill:currentColor; stroke: none"  id="Path" d="M20.5,12.5l-3.8-0.8c0.2-1.3-0.1-2.6-1-3.6l3.5-2.7c1.4,1.1,3.5,1,4.8-0.1c1.3-1.2,1.4-3,0.1-4.3
      c-1.2-1.2-3.3-1.4-4.8-0.4s-1.8,2.9-0.7,4.2l-3.5,2.7c-1.9-1.7-4.9-1.9-7.1-0.5L4.5,3.4C5.1,2.6,5,1.5,4.2,0.8s-2.1-0.7-2.9,0
      S0.3,2.5,1,3.3s1.9,1,2.9,0.5l3.6,3.7c-1.1,1-1.7,2.3-1.6,3.7s0.8,2.6,2,3.5L5.3,18c-1.7-0.8-3.8-0.3-4.8,1.1
      c-1,1.4-0.6,3.3,1,4.3c1.6,1,3.7,0.7,4.9-0.6s1-3.3-0.4-4.4l2.5-3.2c1.7,0.9,3.8,0.9,5.5,0l3.6,4.7c-0.5,0.6-0.5,1.4,0,1.9
      s1.5,0.6,2.1,0.2c0.7-0.4,0.9-1.2,0.5-1.8c-0.4-0.6-1.2-0.9-2-0.7l-3.6-4.7c0.8-0.6,1.4-1.4,1.8-2.3l3.8,0.8c0,0,0,0,0,0.1
      c0,0.8,0.5,1.5,1.3,1.8c0.8,0.3,1.7,0.1,2.4-0.4c0.6-0.6,0.8-1.4,0.5-2.1c-0.3-0.7-1.1-1.2-2-1.2C21.7,11.4,20.9,11.8,20.5,12.5
      z"/>
  </g>
</svg>
