<?xml version="1.0" encoding="UTF-8"?>
<svg width="56px" height="40px" viewBox="0 0 56 40" version="1.1" xmlns="http://www.w3.org/2000/svg" xmlns:xlink="http://www.w3.org/1999/xlink">
    <!-- Generator: Sketch 63.1 (92452) - https://sketch.com -->
    <desc>Created with Sketch.</desc>
    <g id="Basic-Image-Upload-Upgrade" stroke="none" stroke-width="1" fill="none" fill-rule="evenodd">
        <g id="Basic-Font-Upload-Upgrade-Final" transform="translate(-252.000000, -182.000000)" fill-rule="nonzero">
            <g id="Group-2" transform="translate(252.000000, 182.000000)">
                <g id="noun_Upload_1562152" fill="#2D3558">
                    <g id="Group">
                        <path d="M27.6000011,0.227649723 C23.4933135,0.227649723 19.3803998,1.75571321 16.2470937,4.82407848 C13.5878657,7.42825001 12.056194,10.7204873 11.6537474,14.1151503 C5.11492206,14.696516 6.41860475e-08,20.0728008 6.41860475e-08,26.6276696 C6.41860475e-08,33.5706185 5.74747558,39.1990987 12.8372098,39.1990987 L44.2883739,39.1990987 C50.333416,39.1990987 55.2000022,34.4332699 55.2000022,28.513384 C55.2000022,22.593498 50.333416,17.8276504 44.2883739,17.8276504 L43.5261645,17.8276504 C44.091772,13.2048845 42.5554147,8.37161633 38.9328183,4.82407848 C35.7997047,1.75571321 31.7066887,0.227649723 27.6000011,0.227649723 Z" id="Shape"></path>
                    </g>
                </g>
                <g id="noun_Unlock_1872494" transform="translate(19.000000, 10.000000)" fill="#FFFFFF">
                    <g id="Group">
                        <path d="M6.14763895,3.99025247 L6.14763895,7.95729262 L7.42112546,7.95729262 L7.42112546,3.99025247 C7.42112546,1.79017853 5.75674862,2.63522548e-14 3.71069434,2.63522548e-14 C1.66464007,2.63522548e-14 -9.72377773e-14,1.79017853 -9.72377773e-14,3.99025247 L-9.72377773e-14,7.95729262 L1.27322328,7.95729262 L1.27322328,3.99025247 C1.27322328,2.54514472 2.36640009,1.36952621 3.71043112,1.36952621 C5.05419891,1.36952621 6.14737573,2.54514472 6.14763895,3.99025247 Z" id="Path"></path>
                        <path d="M13.3102767,8.52344649 L6.13763637,8.52344649 C4.64040793,8.52344649 3.42193562,9.83437578 3.42193562,11.4453666 L3.42193562,19.1586469 C3.42193562,20.7693547 4.64040793,22.0800009 6.13763637,22.0800009 L13.3102767,22.0800009 C14.8080316,22.0800009 16.0265039,20.7693547 16.0265039,19.1586469 L16.0265039,11.4453666 C16.0265039,9.8340927 14.8080316,8.52344649 13.3102767,8.52344649 Z M10.1928933,15.4554345 L10.1234017,15.4959145 L10.1234017,17.1555945 L9.32503779,17.1555945 L9.32503779,15.4956314 L9.25554617,15.4551514 C8.93125197,15.2671883 8.72856809,14.9076806 8.72856809,14.5173175 C8.72856809,13.9276682 9.17473585,13.4481359 9.72329845,13.4481359 C10.2721243,13.4481359 10.7180288,13.9276682 10.7185576,14.5173175 C10.7193449,14.9076806 10.5179772,15.2674714 10.1928933,15.4554345 Z" id="Shape"></path>
                    </g>
                </g>
            </g>
        </g>
    </g>
</svg>