<svg id="Layer_1" data-name="Layer 1" xmlns="http://www.w3.org/2000/svg" viewBox="0 0 56 64.9"><title>Artboard 3</title><path style="fill:currentColor;" d="M38.48,31.72l-6-4.49V44.85l6-4.48L44.25,36Zm0,0-6-4.49V44.85l6-4.48L44.25,36Zm0,0-6-4.49V44.85l6-4.48L44.25,36Zm-4-11.2v-4a19.44,19.44,0,0,0-10.41,4.33l2.78,2.8A15.52,15.52,0,0,1,34.46,20.52ZM24.07,26.45l-2.8-2.78a19.47,19.47,0,0,0-4.33,10.42h3.95A15.57,15.57,0,0,1,24.07,26.45ZM20.89,38H16.94a19.47,19.47,0,0,0,4.33,10.42l2.8-2.8A15.46,15.46,0,0,1,20.89,38Zm3.16,13.2a19.58,19.58,0,0,0,10.41,4.33v-4a15.52,15.52,0,0,1-7.63-3.17ZM56,36A19.61,19.61,0,0,1,38.48,55.53v-4a15.66,15.66,0,0,0,0-31v-4A19.61,19.61,0,0,1,56,36Z"/><path style="fill:currentColor;" d="M47.67,64.9H2.37A2.37,2.37,0,0,1,0,62.53V2.37A2.37,2.37,0,0,1,2.37,0h45.3a2.38,2.38,0,0,1,2.38,2.37V14.43H45.3V4.75H4.75v55.4H47.67v.07h2.38v2.31A2.38,2.38,0,0,1,47.67,64.9Z"/></svg>
