<?xml version="1.0" encoding="utf-8"?>
<svg version="1.1" xmlns="http://www.w3.org/2000/svg" xmlns:xlink="http://www.w3.org/1999/xlink" x="0px" y="0px"
	 width="452.5px" height="62px" viewBox="159.5 374.5 452.5 62" xml:space="preserve"
	>
<path d="M199.837,405.692c0.032,2.528-0.391,5.041-1.249,7.419c-0.757,2.09-1.938,4-3.473,5.607
	c-1.512,1.558-3.345,2.769-5.37,3.548c-2.203,0.848-4.547,1.271-6.907,1.249h-12.977v-35.608h12.989
	c2.36-0.022,4.703,0.401,6.906,1.249c2.026,0.779,3.858,1.989,5.371,3.547c1.528,1.605,2.706,3.511,3.46,5.596
	C199.445,400.668,199.867,403.173,199.837,405.692z M197.176,405.692c0.035-2.258-0.315-4.505-1.036-6.645
	c-0.619-1.83-1.615-3.511-2.923-4.934c-1.258-1.359-2.802-2.421-4.521-3.11c-1.858-0.724-3.838-1.084-5.832-1.062h-10.417v31.462
	h10.417c1.994,0.023,3.975-0.337,5.832-1.062c1.72-0.688,3.264-1.751,4.521-3.109c1.284-1.413,2.263-3.075,2.873-4.884
	c0.732-2.143,1.096-4.394,1.074-6.657H197.176z" style="fill:currentColor"/>
<path d="M234.496,421.367v2.136h-21.383v-35.596h21.332v2.136h-18.734v14.388h15.6v2.086h-15.612v14.851H234.496z" style="fill:currentColor"/>
<path d="M264.596,392.253c-0.113,0.258-0.368,0.424-0.649,0.425c-0.327-0.052-0.627-0.215-0.849-0.462
	c-0.438-0.382-0.906-0.729-1.399-1.036c-0.691-0.431-1.429-0.782-2.198-1.05c-2.178-0.663-4.507-0.637-6.669,0.075
	c-0.929,0.325-1.779,0.84-2.498,1.511c-0.654,0.623-1.169,1.376-1.512,2.211c-0.342,0.837-0.516,1.732-0.512,2.636
	c-0.044,1.052,0.221,2.094,0.762,2.997c0.527,0.804,1.216,1.489,2.023,2.011c0.893,0.581,1.854,1.051,2.86,1.399
	c1.065,0.375,2.16,0.749,3.284,1.124s2.22,0.791,3.285,1.249c1.027,0.421,1.99,0.984,2.86,1.674
	c0.843,0.681,1.532,1.532,2.023,2.498c0.544,1.141,0.806,2.396,0.762,3.659c0.011,1.438-0.248,2.865-0.762,4.209
	c-0.492,1.288-1.25,2.458-2.224,3.435c-1.021,1.003-2.236,1.785-3.572,2.299c-1.542,0.588-3.183,0.876-4.833,0.849
	c-2.089,0.054-4.161-0.374-6.058-1.249c-1.693-0.831-3.204-1.99-4.446-3.409l0.699-1.112c0.161-0.228,0.42-0.366,0.699-0.374
	c0.22,0.034,0.421,0.139,0.575,0.3l0.849,0.736c0.333,0.292,0.75,0.612,1.249,0.962c0.515,0.367,1.063,0.686,1.637,0.949
	c0.686,0.319,1.4,0.57,2.136,0.75c0.9,0.211,1.822,0.312,2.747,0.299c1.277,0.021,2.548-0.195,3.747-0.637
	c1.045-0.388,2.001-0.982,2.811-1.749c0.765-0.737,1.361-1.633,1.748-2.622c0.406-1.039,0.609-2.146,0.6-3.26
	c0.046-1.088-0.218-2.167-0.762-3.11c-0.496-0.836-1.17-1.552-1.974-2.099c-0.894-0.572-1.854-1.034-2.859-1.374
	c-1.066-0.366-2.161-0.729-3.285-1.086c-1.124-0.358-2.228-0.737-3.31-1.137c-1.03-0.415-1.994-0.979-2.86-1.674
	c-0.844-0.681-1.533-1.531-2.023-2.498c-0.548-1.192-0.809-2.497-0.762-3.81c-0.003-1.182,0.226-2.353,0.674-3.446
	c0.427-1.129,1.086-2.154,1.937-3.011c0.934-0.885,2.033-1.577,3.234-2.035c1.399-0.531,2.888-0.789,4.384-0.763
	c1.707-0.027,3.403,0.273,4.996,0.887c1.506,0.612,2.87,1.526,4.01,2.686L264.596,392.253z" style="fill:currentColor"/>
<path d="M281.858,423.478h-2.586v-35.571h2.586V423.478z" style="fill:currentColor"/>
<path d="M325.821,407.353v12.652c-1.74,1.241-3.655,2.218-5.683,2.897c-2.195,0.701-4.489,1.043-6.794,1.012
	c-2.587,0.054-5.161-0.369-7.594-1.249c-2.153-0.804-4.112-2.056-5.746-3.672c-1.614-1.631-2.858-3.59-3.646-5.745
	c-0.866-2.402-1.289-4.941-1.249-7.494c-0.033-2.553,0.39-5.091,1.249-7.494c0.771-2.143,1.988-4.097,3.572-5.732
	c1.59-1.611,3.506-2.863,5.62-3.672c2.373-0.879,4.89-1.303,7.419-1.249c1.254-0.007,2.507,0.085,3.747,0.274
	c1.093,0.169,2.168,0.44,3.21,0.812c0.963,0.352,1.888,0.799,2.76,1.337c0.882,0.538,1.718,1.147,2.498,1.823l-0.699,1.111
	c-0.177,0.359-0.611,0.506-0.971,0.329c-0.031-0.016-0.062-0.034-0.091-0.054c-0.391-0.187-0.756-0.421-1.087-0.699
	c-0.604-0.452-1.253-0.842-1.936-1.162c-0.982-0.461-2.007-0.825-3.061-1.087c-1.461-0.367-2.964-0.548-4.471-0.537
	c-2.133-0.025-4.252,0.353-6.245,1.112c-1.808,0.695-3.44,1.778-4.783,3.172c-1.355,1.434-2.394,3.136-3.048,4.996
	c-0.742,2.145-1.105,4.401-1.074,6.67c-0.031,2.293,0.332,4.574,1.074,6.744c0.652,1.898,1.709,3.633,3.098,5.083
	c1.385,1.416,3.064,2.508,4.921,3.198c2.086,0.768,4.297,1.145,6.52,1.111c0.981,0.007,1.963-0.061,2.935-0.2
	c0.866-0.126,1.722-0.313,2.561-0.562c0.809-0.24,1.598-0.54,2.361-0.899c0.766-0.358,1.54-0.774,2.322-1.249v-9.592h-6.819
	c-0.171,0.003-0.336-0.06-0.462-0.176c-0.117-0.1-0.185-0.245-0.188-0.399v-1.411h9.817H325.821z" style="fill:currentColor"/>
<path d="M366.863,387.907v35.571h-1.249c-0.186,0.007-0.37-0.032-0.537-0.113c-0.165-0.096-0.306-0.228-0.412-0.387l-23.081-30.875
	c0.049,0.478,0.074,0.956,0.075,1.437v29.938h-2.261v-35.571h1.249c0.183-0.009,0.366,0.021,0.537,0.087
	c0.165,0.096,0.306,0.229,0.412,0.388l23.105,30.812c-0.049-0.477-0.074-0.956-0.074-1.436v-29.851H366.863z" style="fill:currentColor"/>
<path d="M436.156,387.907l-11.24,35.596h-2.261l-10.491-30.888c-0.138-0.412-0.25-0.861-0.35-1.249
	c-0.101,0.45-0.217,0.866-0.351,1.249l-10.541,30.863h-2.285l-11.241-35.597h2.136c0.433-0.036,0.826,0.251,0.924,0.675l8.98,29.251
	c0.184,0.674,0.35,1.437,0.5,2.285c0.087-0.437,0.162-0.849,0.25-1.249c0.078-0.363,0.178-0.722,0.299-1.074l10.067-29.251
	c0.069-0.188,0.19-0.353,0.35-0.475c0.171-0.134,0.383-0.204,0.6-0.199h0.662c0.207-0.008,0.411,0.059,0.574,0.188
	c0.154,0.131,0.274,0.298,0.35,0.486l10.055,29.251c0.125,0.348,0.229,0.702,0.312,1.063c0.092,0.383,0.18,0.799,0.263,1.249
	l0.237-1.249c0.075-0.375,0.149-0.737,0.237-1.074l8.98-29.251c0.057-0.191,0.175-0.358,0.337-0.475
	c0.176-0.134,0.392-0.204,0.612-0.2h1.961L436.156,387.907z" style="fill:currentColor"/>
<path d="M450.244,423.478h-2.585v-35.571h2.585V423.478z" style="fill:currentColor"/>
<path d="M488.651,388.794c-0.016,0.371-0.137,0.731-0.35,1.036l-22.582,31.537h22.757v2.111h-26.229v-0.938
	c-0.004-0.166,0.026-0.332,0.087-0.486c0.06-0.144,0.13-0.281,0.213-0.413l22.644-31.611h-22.27v-2.123h25.729v0.874V388.794z" style="fill:currentColor"/>
<path d="M527.944,423.478h-1.986c-0.207,0.006-0.41-0.06-0.574-0.188c-0.154-0.132-0.274-0.299-0.35-0.487l-4.209-10.317h-17.486
	l-4.171,10.342c-0.071,0.188-0.192,0.353-0.35,0.475c-0.171,0.135-0.383,0.205-0.6,0.2h-1.961l14.575-35.596h2.498L527.944,423.478z
	 M520.074,410.551l-7.244-17.985c-0.284-0.688-0.526-1.393-0.724-2.11c-0.101,0.399-0.213,0.786-0.325,1.148
	c-0.107,0.336-0.232,0.665-0.375,0.987l-7.243,17.96H520.074z" style="fill:currentColor"/>
<path d="M563.427,423.478h-2.211c-0.244,0.006-0.487-0.041-0.712-0.138c-0.221-0.12-0.406-0.297-0.537-0.513l-11.415-14.438
	c-0.124-0.17-0.262-0.328-0.413-0.475c-0.138-0.131-0.299-0.236-0.475-0.312c-0.2-0.081-0.41-0.136-0.624-0.163
	c-0.295-0.019-0.592-0.019-0.887,0h-4.659v16.038h-2.585v-35.571h9.105c4.088,0,7.152,0.791,9.192,2.373
	c2.077,1.696,3.208,4.292,3.035,6.969c0.021,1.283-0.218,2.558-0.7,3.747c-0.462,1.116-1.151,2.124-2.022,2.96
	c-0.938,0.867-2.026,1.557-3.21,2.036c-1.344,0.563-2.762,0.93-4.21,1.087c0.422,0.268,0.79,0.61,1.087,1.012L563.427,423.478z
	 M547.64,405.492c1.431,0.021,2.857-0.169,4.234-0.562c1.153-0.327,2.231-0.879,3.172-1.624c0.841-0.67,1.517-1.524,1.974-2.498
	c0.464-1.054,0.694-2.195,0.675-3.347c0.156-2.177-0.78-4.288-2.498-5.633c-2.155-1.362-4.688-2.006-7.231-1.837h-6.521v15.5h6.158
	H547.64z" style="fill:currentColor"/>
<path d="M604.431,405.692c0.032,2.528-0.391,5.041-1.249,7.419c-0.756,2.09-1.938,4-3.472,5.607
	c-1.513,1.558-3.345,2.769-5.371,3.548c-2.203,0.848-4.546,1.271-6.907,1.249h-12.989v-35.608h13.002
	c2.36-0.022,4.704,0.401,6.907,1.249c2.025,0.779,3.858,1.989,5.37,3.547c1.556,1.599,2.759,3.504,3.535,5.596
	C604.088,400.673,604.486,403.177,604.431,405.692z M601.758,405.692c0.034-2.258-0.316-4.505-1.037-6.645
	c-0.618-1.831-1.614-3.511-2.922-4.934c-1.262-1.36-2.811-2.423-4.534-3.11c-1.858-0.724-3.838-1.084-5.833-1.062h-10.403v31.462
	h10.416c1.989,0.026,3.965-0.33,5.82-1.049c1.729-0.689,3.282-1.756,4.547-3.122c1.311-1.405,2.314-3.069,2.947-4.884
	C601.466,410.203,601.804,407.952,601.758,405.692z" style="fill:currentColor"/>
</svg>
