<svg xmlns="http://www.w3.org/2000/svg" viewBox="0 0 113.98 118.33"><title>Design Wizard</title>
  <path d="M57,118.33C27,118.33,2.69,91.79,2.69,59.16S27,0,57,0s54.28,26.54,54.28,59.16S86.9,118.33,57,118.33ZM57,1.2c-29.27,0-53.08,26-53.08,58s23.81,58,53.08,58,53.08-26,53.08-58S86.25,1.2,57,1.2Z" style="fill:currentColor"/>
  <path d="M52,115.94A51.5,51.5,0,0,1,15.14,101C-6,79.83-4.47,43.85,18.59,20.78A61.56,61.56,0,0,1,59.39,2.44c15.18-.65,29.16,4.63,39.42,14.89s15.55,24.26,14.89,39.42a61.56,61.56,0,0,1-18.34,40.8,61.56,61.56,0,0,1-40.8,18.34C53.72,115.92,52.87,115.94,52,115.94ZM61.91,3.58q-1.23,0-2.47.05a60.38,60.38,0,0,0-40,18C-3.16,44.23-4.71,79.45,16,100.15c10,10,23.69,15.18,38.52,14.54a60.37,60.37,0,0,0,40-18,60.37,60.37,0,0,0,18-40C113.15,41.87,108,28.19,98,18.17A50.33,50.33,0,0,0,61.91,3.58Z" style="fill:currentColor"/>
  <path d="M61.85,115.68a61.76,61.76,0,0,1-41.44-16.4c-24.11-22-27.32-57.85-7.16-80S69.42-2.93,93.54,19a61.56,61.56,0,0,1,20.21,39.9c1.36,15.11-3.27,29.34-13,40.07C90.58,110.12,76.45,115.68,61.85,115.68ZM52.1,3.84c-14.28,0-28.08,5.43-38,16.28C-5.59,41.75-2.41,76.87,21.22,98.4s58.89,21.44,78.6-.19c9.54-10.47,14.07-24.38,12.74-39.15A60.38,60.38,0,0,0,92.73,19.93,60.58,60.58,0,0,0,52.1,3.84Z" style="fill:currentColor"/>
  <path d="M46.33,34.88v38.5H44.86a.76.76,0,0,1-.85-.69l-.28-4.15a14.64,14.64,0,0,1-4.35,3.78,11.19,11.19,0,0,1-5.6,1.4,10.07,10.07,0,0,1-8.08-3.36Q22.81,67,22.81,60.28a17.47,17.47,0,0,1,.81-5.38A12.65,12.65,0,0,1,26,50.56a11,11,0,0,1,3.83-2.9A12.31,12.31,0,0,1,35,46.6a11.59,11.59,0,0,1,4.95,1,10.23,10.23,0,0,1,3.65,2.91V34.88ZM43.64,52.72a9.39,9.39,0,0,0-3.58-3.2,10.38,10.38,0,0,0-4.48-.93,10.46,10.46,0,0,0-4.35.85,8.48,8.48,0,0,0-3.12,2.39,10.52,10.52,0,0,0-1.89,3.7,16.76,16.76,0,0,0-.63,4.75q0,5.87,2.3,8.64a8.17,8.17,0,0,0,6.66,2.77,9.78,9.78,0,0,0,5.06-1.35,13.37,13.37,0,0,0,4-3.78Z" style="fill:currentColor"/>
  <path d="M91.29,47.05,81.91,73.38h-2a.66.66,0,0,1-.65-.56L71.56,51.45c-.09-.26-.18-.53-.25-.79s-.14-.53-.2-.79a10,10,0,0,1-.42,1.59l-7.8,21.38a.67.67,0,0,1-.68.56H60.29L50.9,47.05h2a1,1,0,0,1,.65.2,1,1,0,0,1,.34.44L61,68.46c.11.41.22.8.31,1.18s.17.75.23,1.13l.34-1.13c.11-.38.25-.77.4-1.18l7.52-21a.77.77,0,0,1,.79-.58h1.1a.79.79,0,0,1,.82.58l7.46,21q.2.61.37,1.16t.31,1.11c.07-.37.16-.74.24-1.11s.19-.76.32-1.16l7.15-20.77a1,1,0,0,1,.37-.46,1,1,0,0,1,.59-.17Z" style="fill:currentColor"/>

  <g transform="scale(0.5) translate(-23.69 -7.72)" >
    <path

      style="fill:currentColor" d="M207.2,84l0.9,4.4l4.2,1.8l-3.9,2.3L208,97l-3.4-3l-4.4,1l1.9-4.1l-2.4-3.9l4.5,0.5L207.2,84 M208.3,79.6
            l-2.6,3.1l-2.3,2.6L200,85l-4-0.4L198,88l1.8,3l-1.4,3.2l-1.7,3.7l3.9-0.9l3.4-0.8l2.6,2.3l3,2.7l0.3-4l0.3-3.5l3-1.7l3.5-2
            l-3.7-1.6l-3.2-1.3l-0.7-3.4L208.3,79.6L208.3,79.6z"
    />
    <path

      style="fill:currentColor" d="M198.3,72.4l0.4,1.7l1.6,0.7l-1.5,0.9l-0.1,1.7l-1.3-1.2l-1.7,0.4l0.7-1.6l-0.9-1.5l1.7,0.2L198.3,72.4
          M198.8,70.8l-1,1.2l-0.9,1l-1.3-0.1l-1.5-0.2l0.8,1.3l0.7,1.1l-0.5,1.2l-0.6,1.4l1.5-0.4l1.3-0.3l1,0.9l1.1,1l0.1-1.5l0.1-1.3
          l1.2-0.7l1.3-0.8l-1.4-0.6l-1.2-0.5l-0.3-1.3L198.8,70.8L198.8,70.8z"
    />
    <path

      style="fill:currentColor" d="M219.3,68.4l0.6,2.9l2.7,1.1l-2.5,1.4l-0.2,2.9l-2.2-2l-2.8,0.7l1.2-2.7l-1.5-2.5l2.9,0.3L219.3,68.4
          M220.1,65.6l-1.7,2l-1.5,1.7l-2.2-0.2l-2.6-0.3l1.4,2.2l1.2,1.9l-0.9,2l-1.1,2.4l2.5-0.6l2.2-0.5l1.7,1.5l1.9,1.8l0.2-2.6l0.2-2.2
          l1.9-1.1l2.3-1.3l-2.4-1l-2.1-0.9l-0.5-2.2L220.1,65.6L220.1,65.6z"
    />
  </g>

  <path d="M24,80.89a8.94,8.94,0,0,1,1.33-.1,2.76,2.76,0,0,1,2,.6A2.23,2.23,0,0,1,28,83.13a2.56,2.56,0,0,1-.7,1.88,3,3,0,0,1-2.14.7A10,10,0,0,1,24,85.64Zm.62,4.27a3.87,3.87,0,0,0,.63,0,1.86,1.86,0,0,0,2.06-2.05,1.72,1.72,0,0,0-2-1.86,3.55,3.55,0,0,0-.73.06Z" style="fill:currentColor"/>
  <path d="M32.72,83.39H30.84v1.74h2.09v.52H30.22V80.83h2.61v.52h-2v1.53h1.88Z" style="fill:currentColor"/>
  <path d="M35.09,84.9a2.21,2.21,0,0,0,1.12.32c.64,0,1-.34,1-.82s-.26-.71-.91-1S35,82.74,35,82.06a1.39,1.39,0,0,1,1.56-1.31,2.2,2.2,0,0,1,1.07.24l-.17.51a1.92,1.92,0,0,0-.92-.23c-.66,0-.91.39-.91.72s.29.67,1,.93,1.23.71,1.23,1.42-.55,1.39-1.69,1.39a2.5,2.5,0,0,1-1.23-.31Z" style="fill:currentColor"/>
  <path d="M40.76,80.83v4.83h-.62V80.83Z" style="fill:currentColor"/>
  <path d="M47,85.44a4.48,4.48,0,0,1-1.48.27A2.27,2.27,0,0,1,43,83.27a2.42,2.42,0,0,1,2.62-2.49,3,3,0,0,1,1.2.22l-.15.51a2.51,2.51,0,0,0-1.07-.21,1.81,1.81,0,0,0-1.94,1.94,1.77,1.77,0,0,0,1.86,2,2.05,2.05,0,0,0,.83-.13V83.62h-1v-.5H47Z" style="fill:currentColor"/>
  <path d="M49.33,85.66V80.83H50l1.55,2.44a13.6,13.6,0,0,1,.87,1.57h0c-.06-.64-.07-1.23-.07-2v-2H53v4.83h-.63L50.8,83.21a15.36,15.36,0,0,1-.9-1.61h0c0,.61.05,1.19.05,2v2.06Z" style="fill:currentColor"/>
  <path d="M59,85.66l-1.23-4.83h.66L59,83.27c.14.6.27,1.2.36,1.67h0c.08-.48.23-1.05.39-1.68l.64-2.44H61l.59,2.45c.14.57.26,1.15.34,1.66h0c.1-.53.24-1.07.39-1.67L63,80.83h.64l-1.37,4.83h-.65L61,83.14a14.46,14.46,0,0,1-.32-1.58h0a15.41,15.41,0,0,1-.37,1.58l-.69,2.52Z" style="fill:currentColor"/>
  <path d="M66.28,80.83v4.83h-.62V80.83Z" style="fill:currentColor"/>
  <path d="M68.47,85.29l2.68-3.92v0H68.7v-.52H72v.38L69.3,85.11v0H72v.52H68.47Z" style="fill:currentColor"/>
  <path d="M75,84.14l-.5,1.52h-.64l1.64-4.83h.75l1.65,4.83H77.2l-.52-1.52Zm1.58-.49-.47-1.39c-.11-.32-.18-.6-.25-.88h0c-.07.29-.15.58-.24.87l-.47,1.4Z" style="fill:currentColor"/>
  <path d="M80,80.89a6.54,6.54,0,0,1,1.2-.1,2,2,0,0,1,1.4.39,1.21,1.21,0,0,1,.38.92,1.27,1.27,0,0,1-.91,1.23v0a1.2,1.2,0,0,1,.71,1,7.7,7.7,0,0,0,.37,1.33h-.64a6.31,6.31,0,0,1-.32-1.15c-.14-.67-.4-.92-1-.94h-.59v2.09H80Zm.62,2.2h.64c.67,0,1.09-.37,1.09-.92s-.45-.9-1.11-.9a2.53,2.53,0,0,0-.62.06Z" style="fill:currentColor"/>
  <path d="M85.29,80.89a8.94,8.94,0,0,1,1.33-.1,2.76,2.76,0,0,1,2,.6,2.23,2.23,0,0,1,.68,1.73,2.56,2.56,0,0,1-.7,1.88,3,3,0,0,1-2.14.7,10,10,0,0,1-1.13-.06Zm.62,4.27a3.87,3.87,0,0,0,.63,0,1.86,1.86,0,0,0,2.06-2.05,1.72,1.72,0,0,0-2-1.86,3.55,3.55,0,0,0-.73.06Z" style="fill:currentColor"/>
</svg>
