<?xml version="1.0" encoding="UTF-8"?>
<svg width="22px" height="22px" viewBox="0 0 22 22" version="1.1" xmlns="http://www.w3.org/2000/svg" xmlns:xlink="http://www.w3.org/1999/xlink">
    <g stroke="none" stroke-width="1">
        <g transform="translate(-199.000000, -182.000000)">
            <g transform="translate(10.000000, 162.000000)">
                <g transform="translate(200.000000, 31.000000) rotate(-180.000000) translate(-200.000000, -31.000000) translate(189.000000, 20.000000)">
                    <path d="M0,22 L0,20.7058824 L16.8235294,20.7058824 L16.8235294,22 L0,22 L0,22 Z M0,16.8235294 L0,15.5294118 L22,15.5294118 L22,16.8235294 L0,16.8235294 L0,16.8235294 Z M10.3529412,4.26325641e-14 L11.6470588,4.26325641e-14 L11.6470588,10.6764706 L15.8529412,6.47058824 L16.8235294,7.32470588 L11,13.1482353 L5.17647059,7.32470588 L6.14705882,6.47058824 L10.3529412,10.6764706 L10.3529412,4.26325641e-14 Z" id="Shape"></path>
                </g>
            </g>
        </g>
    </g>
</svg>
