<?xml version="1.0" encoding="UTF-8"?>
<svg width="37px" height="20px" viewBox="0 0 37 20" version="1.1" xmlns="http://www.w3.org/2000/svg" xmlns:xlink="http://www.w3.org/1999/xlink">
    <g stroke="none" stroke-width="1">
        <g transform="translate(-241.000000, -182.000000)">
            <g transform="translate(10.000000, 162.000000)">
                <g transform="translate(249.500000, 30.000000) rotate(-270.000000) translate(-249.500000, -30.000000) translate(239.500000, 11.500000)">
                    <path d="M0.5,17.6336898 L19.5,17.6336898 L19.5,19.0454545 L0.5,19.0454545 L0.5,17.6336898 Z M8.6048951,0.5 L10.0664336,0.5 L10.0664336,12.1470588 L14.8164336,7.55882353 L15.9125874,8.49058824 L9.33566434,14.8435294 L2.75874126,8.49058824 L3.8548951,7.55882353 L8.6048951,12.1470588 L8.6048951,0.5 Z M10.2657343,36.5 L8.8041958,36.5 L8.8041958,24.8529412 L4.0541958,29.4411765 L2.95804196,28.5094118 L9.53496503,22.1564706 L16.1118881,28.5094118 L15.0157343,29.4411765 L10.2657343,24.8529412 L10.2657343,36.5 Z"></path>
                </g>
            </g>
        </g>
    </g>
</svg>
