<?xml version="1.0" encoding="utf-8"?>
<!-- Generator: Adobe Illustrator 23.1.1, SVG Export Plug-In . SVG Version: 6.00 Build 0)  -->
<svg version="1.1" id="Layer_1" xmlns="http://www.w3.org/2000/svg" xmlns:xlink="http://www.w3.org/1999/xlink" x="0px" y="0px"
	 viewBox="0 0 33 25" style=" color: white;enable-background:new 0 0 33 25;" xml:space="preserve">

<desc>Created with Sketch.</desc>
<g id="Polished-Version--Design-Editor">
	<g id="Desktop-HD" transform="translate(-28.000000, -243.000000)">
		<g id="images-b" transform="translate(29.000000, 244.000000)">
			<g id="Group" transform="translate(2.000000, 2.000000)">
				<g id="Oval">
					<ellipse style="fill:currentColor;" cx="19.9" cy="2.4" rx="1.9" ry="1.9"/>
					<path style="fill:currentColor; stroke:none" d="M19.9,4.7c-1.3,0-2.4-1.1-2.4-2.4S18.6,0,19.9,0c1.3,0,2.4,1.1,2.4,2.4S21.3,4.7,19.9,4.7z M19.9,1
						c-0.8,0-1.4,0.6-1.4,1.4s0.6,1.4,1.4,1.4s1.4-0.6,1.4-1.4S20.7,1,19.9,1z"/>
				</g>
				<g id="Path">
					<polygon style="fill:currentColor; stroke:currentColor; stroke:none" points="23.7,13.9 21.3,15.4 20.5,8.1 16,10.8 12.4,3.8 0.5,19.5 26.7,19.5 					"/>
					<path style="fill:currentColor; stroke:currentColor; stroke:none" class="st0" d="M27.6,20H-0.5l13-17.1l3.8,7.3l4.7-2.9l0.9,7.3l2.2-1.4L27.6,20z M1.5,19h24.4l-2.4-4.4l-2.6,1.7l-0.9-7.3
						l-4.3,2.7l-3.5-6.9L1.5,19z"/>
				</g>
			</g>
			<g>
				<path style="fill:currentColor; stroke:currentColor; stroke:none" d="M28.9,23.5H2.1c-1.5,0-2.6-0.9-2.6-2.1V1.6c0-1.2,1.2-2.1,2.6-2.1h26.8c1.5,0,2.6,0.9,2.6,2.1v19.8
					C31.5,22.6,30.3,23.5,28.9,23.5z M2.1,0.5c-1,0-1.6,0.6-1.6,1.1v19.8c0,0.6,0.7,1.1,1.6,1.1h26.8c1,0,1.6-0.6,1.6-1.1V1.6
					c0-0.6-0.7-1.1-1.6-1.1H2.1z"/>
			</g>
		</g>
	</g>
</g>
</svg>
