<?xml version="1.0" encoding="iso-8859-1"?>
<!-- Generator: Adobe Illustrator 21.0.2, SVG Export Plug-In . SVG Version: 6.00 Build 0)  -->
<svg version="1.1" xmlns="http://www.w3.org/2000/svg" xmlns:xlink="http://www.w3.org/1999/xlink" x="0px" y="0px"
	 viewBox="0 0 500 500" style="color: white;enable-background:new 0 0 500 500;" xml:space="preserve">
<g id="resize_x5F_icon_x5F_02">

		<line style="fill:currentColor;stroke:currentColor;stroke-width:20;stroke-miterlimit:10;" x1="235.983" y1="234.648" x2="117.604" y2="116.269"/>
	<path style="fill:currentColor;stroke:currentColor;stroke-width:4;stroke-miterlimit:10;" d="M171.435,105.892c-22.331,0-44.662,0-66.993,0
		c0.042,22.23,0.084,44.46,0.126,66.69L171.435,105.892z"/>

		<line style="fill:currentColor;stroke:currentColor;stroke-width:20;stroke-miterlimit:10;" x1="288.575" y1="234.648" x2="410.265" y2="112.957"/>
	<path style="fill:currentColor;stroke:currentColor;stroke-width:4;stroke-miterlimit:10;" d="M419.99,172.582
		c0.042-22.23,0.084-44.46,0.126-66.69c-22.331,0-44.662,0-66.993,0L419.99,172.582z"/>

		<line style="fill:currentColor;stroke:currentColor;stroke-width:20;stroke-miterlimit:10;" x1="234.59" y1="279.305" x2="110.914" y2="402.981"/>
	<path style="fill:currentColor;stroke:currentColor;stroke-width:4;stroke-miterlimit:10;" d="M171.435,408.06c-22.331,0-44.662,0-66.993,0
		c0.042-22.23,0.084-44.46,0.126-66.69L171.435,408.06z"/>

		<line style="fill:currentColor;stroke:currentColor;stroke-width:20;stroke-miterlimit:10;" x1="291.361" y1="279.305" x2="400.648" y2="388.592"/>
	<path style="fill:currentColor;stroke:currentColor;stroke-width:4;stroke-miterlimit:10;" d="M419.99,341.37
		c0.042,22.23,0.084,44.46,0.126,66.69c-22.331,0-44.662,0-66.993,0L419.99,341.37z"/>
</g>
</svg>
