<?xml version="1.0" encoding="UTF-8"?>
<svg width="32px" height="24px" viewBox="0 0 32 24" version="1.1" xmlns="http://www.w3.org/2000/svg" xmlns:xlink="http://www.w3.org/1999/xlink">
    <g id="icons-choices" stroke="none" stroke-width="1" fill="none" fill-rule="evenodd">
        <g id="Desktop-HD" transform="translate(-1115.000000, -316.000000)" fill="#5d5e63" fill-rule="nonzero">
            <g id="noun_Folder_2451188" transform="translate(1115.000000, 316.000000)">
                <g id="Group">
                    <path style="fill:#8c90aa; stroke:currentColor; stroke: none" d="M3.37103448,9.36 C3.88600921,7.53256333 5.63596021,6.26092308 7.63586207,6.26086957 L28.137931,6.26086957 C28.137931,4.53197817 26.6558392,3.13043478 24.8275862,3.13043478 L12.297931,3.13043478 L8.03310345,0.104347826 C7.94368647,0.0407434838 7.83593282,0.00435152787 7.72413793,0 L3.86206897,0 C2.033816,0 0.551724138,1.40154339 0.551724138,3.13043478 L0.551724138,19.346087 L1.65517241,15.4382609 L3.37103448,9.36 Z" id="Path"></path>
                    <path style="fill:#8c90aa; stroke:currentColor; stroke: none" d="M30.8965517,7.30434783 L7.63586207,7.30434783 C6.12801521,7.29398066 4.80329065,8.24854274 4.4137931,9.62608696 L1.65517241,19.4869565 L0.551724138,23.3426087 C0.545893108,23.387658 0.545893108,23.4332116 0.551724138,23.4782609 L0.551724138,23.4782609 C0.551724138,23.7664094 0.798739448,24.0000836 1.10344828,24.0000836 L24.3641379,24.0000836 C25.8719848,24.0103672 27.1967093,23.0558051 27.5862069,21.6782609 L31.4482759,7.96173913 C31.4919654,7.80407164 31.4552274,7.63615525 31.3489655,7.50782609 C31.2412943,7.3754318 31.073104,7.29978627 30.8965517,7.30434783 Z" id="Path"></path>
                </g>
            </g>
        </g>
    </g>
</svg>
