<?xml version="1.0" encoding="utf-8"?>
<!-- Generator: Adobe Illustrator 23.1.1, SVG Export Plug-In . SVG Version: 6.00 Build 0)  -->
<svg version="1.1" id="Layer_1" xmlns="http://www.w3.org/2000/svg" xmlns:xlink="http://www.w3.org/1999/xlink" x="0px" y="0px"
	 viewBox="0 0 24 29" style="color: white;enable-background:new 0 0 24 29;" xml:space="preserve">
<title>noun_shapes_696500</title>
<desc>Created with Sketch.</desc>
<g id="Polished-Version--Design-Editor">

			<path style="fill:currentColor; stroke:#00f; stroke-width:0"  id="Shape" d="M15,0l-4.9,8H0v14.2h5.8c0.5,3.8,4,6.9,8.1,6.9c4.5,0,8.2-3.5,8.2-7.7c0-2.7-1.5-5.1-3.7-6.5H24
				L15,0z M15,3.1l6.2,10.1h-6.4H8.8L12,8l0,0L15,3.1z M20.4,21.3c0,3.4-2.9,6.2-6.5,6.2c-3.3,0-6-2.3-6.5-5.3h6.4h0.8v-0.8v-6.2
				C17.9,15.5,20.4,18.1,20.4,21.3z"/>
</g>
</svg>
