<?xml version="1.0" encoding="UTF-8"?>
<svg width="24px" height="24px" viewBox="0 0 24 24" version="1.1" xmlns="http://www.w3.org/2000/svg" xmlns:xlink="http://www.w3.org/1999/xlink">
    <g id="Polished-Version--Design-Editor" stroke="none" stroke-width="1" fill-rule="evenodd">
        <g id="Desktop-HD" transform="translate(-33.000000, -372.000000)" fill="#F0ECF5" fill-rule="nonzero">
            <g id="noun_text_45364" transform="translate(33.000000, 372.000000)">
                <path style="color: white;fill:currentColor; stroke:currentColor; stroke: none" d="M0.75,0 L0,6 L0.75,6 C0.75,3.9 2.4,2.25 4.5,2.25 L9.75,2.25 L9.75,21.375 C9.75,22.425 8.925,23.25 7.875,23.25 L6,23.25 L6,24 L18,24 L18,23.25 L16.125,23.25 C15.075,23.25 14.25,22.425 14.25,21.375 L14.25,2.25 L19.5,2.25 C21.6,2.25 23.25,3.9 23.25,6 L24,6 L23.25,0 L0.75,0 Z" id="Path"></path>
            </g>
        </g>
    </g>
</svg>
