<svg xmlns="http://www.w3.org/2000/svg" viewBox="0 0 350 350">
  <title>user</title>
  <g>
    <path d="M205.84,176.78c-8.45,7.69-19.16,13.95-31.89,13.95q-.8,0-1.6,0c-12.2-.5-22.07-6.67-29.85-14.09-45,17-81.52,68.41-73,128.91l208.3-.21C286.28,245.26,250.37,193.94,205.84,176.78Z" style="fill: currentColor"/>
    <path d="M232.31,102.15c-.17-9.78-.49-28-14.36-43.55-15.88-17.79-37.67-18.94-43-18.94h-.46c-5.24.07-23.49,1.4-38.43,15.46-17.14,16.13-18,37.84-18.32,47.11-.66,17.41,4.43,34.16,15.15,49.78,7.67,11.18,20.5,29.89,39.79,30.68,23,1,39.59-24.68,45.83-34.32,9.44-14.61,14.09-30.16,13.81-46.23l4-.07h0Z" style="fill: currentColor"/>
  </g>
</svg>
