<?xml version="1.0" encoding="UTF-8"?>
<svg width="29px" height="29px" viewBox="0 0 29 29" version="1.1" xmlns="http://www.w3.org/2000/svg" xmlns:xlink="http://www.w3.org/1999/xlink">
    <!-- Generator: Sketch 61 (89581) - https://sketch.com -->
    <g id="Polished-Version-Video-Editor" stroke="none" stroke-width="1" fill="none" fill-rule="evenodd">
        <g id="Desktop-HD" transform="translate(-31.000000, -300.000000)" fill="#F0ECF5" fill-rule="nonzero">
            <g id="noun_add-photo_964480-2" transform="translate(31.000000, 300.000000)">
                <path d="M2.11678832,24.3430657 L19.0510949,24.3430657 L19.0510949,26.459854 L1.05839416,26.459854 C0.476277372,26.459854 0,25.9835766 0,25.4014599 L0,1.05839416 C0,0.476277372 0.476277372,0 1.05839416,0 L25.4014599,0 C25.9835766,0 26.459854,0.476277372 26.459854,1.05839416 L26.459854,19.0510949 L24.3430657,19.0510949 L24.3430657,2.11678832 L2.11678832,2.11678832 L2.11678832,24.3430657 Z M16,9.5 C16,10.9 17.1,12 18.5,12 C19.9,12 21,10.9 21,9.5 C21,8.1 19.9,7 18.5,7 C17.1,7 16,8.1 16,9.5 Z M29,24.3430657 L26.459854,24.3430657 L26.459854,21.8029197 L24.3430657,21.8029197 L24.3430657,24.3430657 L21.8029197,24.3430657 L21.8029197,26.459854 L24.3430657,26.459854 L24.3430657,29 L26.459854,29 L26.459854,26.459854 L29,26.459854 L29,24.3430657 Z M15.8759124,17.4635036 L11.1131387,12.7007299 L4.76277372,19.0510949 L21.6970803,19.0510949 L17.9927007,15.3467153 L15.8759124,17.4635036 Z" id="Shape"></path>
            </g>
        </g>
    </g>
</svg>