<?xml version="1.0" encoding="UTF-8"?>
<svg width="15px" height="15px" viewBox="0 0 15 15" version="1.1" xmlns="http://www.w3.org/2000/svg" xmlns:xlink="http://www.w3.org/1999/xlink">
    <!-- Generator: Sketch 61.2 (89653) - https://sketch.com -->
    <g id="Page-1" stroke="none" stroke-width="1" fill="none" fill-rule="evenodd">
        <g id="Desktop-HD" transform="translate(-1147.000000, -136.000000)" fill="currentColor" fill-rule="nonzero">
            <g id="noun_artboard_2350904" transform="translate(1147.000000, 136.000000)">
                <polygon id="Path" points="15 2.38351648 15 2.05384615 12.9461538 2.05384615 12.9461538 0 12.6164835 0 12.6164835 2.05384615 2.38368132 2.05384615 2.38368132 0 2.05401099 0 2.05401099 2.05384615 2.05384615 2.05384615 0 2.05384615 0 2.38351648 2.05384615 2.38351648 2.05384615 12.6163187 0 12.6163187 0 12.945989 2.05384615 12.945989 2.05384615 15 2.38351648 15 2.38351648 12.945989 12.6164835 12.945989 12.6164835 15 12.9461538 15 12.9461538 12.945989 15 12.945989 15 12.6163187 12.945989 12.6163187 12.945989 2.38351648"></polygon>
            </g>
        </g>
    </g>
</svg>