<?xml version="1.0" encoding="UTF-8"?>
<svg width="16px" height="19px" viewBox="0 0 16 19" version="1.1" xmlns="http://www.w3.org/2000/svg" xmlns:xlink="http://www.w3.org/1999/xlink">
    <!-- Generator: Sketch 61.2 (89653) - https://sketch.com -->
    <g id="Page-1" stroke="none" stroke-width="1" fill="none" fill-rule="evenodd">
        <g id="Desktop-HD" transform="translate(-1234.000000, -176.000000)" fill="currentColor" fill-rule="nonzero">
            <g id="noun_Delete_1144261" transform="translate(1234.000000, 176.000000)">
                <g id="Group">
                    <g id="Shape">
                        <path d="M14.6045459,2.30362325 C14.9886348,2.30362325 15.3000004,2.60696656 15.3000004,2.9811595 C15.3000004,3.35535245 14.9886348,3.65869575 14.6045459,3.65869575 L14.594775,3.65869575 C14.5179266,3.65869575 14.4533733,3.71802302 14.4504571,3.79473197 L13.9497515,16.9654672 C13.9131954,17.9270516 13.0881979,18.7000005 12.1009023,18.7000005 L3.19909809,18.7000005 C2.21129101,18.7000005 1.38674953,17.9255914 1.35024893,16.9654672 L0.849543317,3.79473197 C0.846687085,3.71960125 0.783801385,3.65869575 0.705225423,3.65869575 L0.695454565,3.65869575 C0.311365607,3.65869575 0,3.35535245 0,2.9811595 C0,2.60696656 0.311365607,2.30362325 0.695454565,2.30362325 L4.08604079,2.30362325 C4.16244279,2.30362325 4.24174625,2.24440341 4.26230325,2.17430763 L4.48907451,1.40105778 C4.72171722,0.607787417 5.54893008,0 6.39581653,0 L8.9041839,0 C9.75117083,0 10.5782192,0.60756925 10.8109259,1.40105778 L11.0376972,2.17430763 C11.0586423,2.24572667 11.1368727,2.30362325 11.2139596,2.30362325 L14.6045459,2.30362325 Z M7.09363656,6.09782626 L7.09363656,15.3123193 C7.09363656,15.6116736 7.34272905,15.8543483 7.65000021,15.8543483 C7.95727138,15.8543483 8.20636387,15.6116736 8.20636387,15.3123193 L8.20636387,6.09782626 C8.20636387,5.79847191 7.95727138,5.55579726 7.65000021,5.55579726 C7.34272905,5.55579726 7.09363656,5.79847191 7.09363656,6.09782626 Z M4.03387696,6.1137614 L4.31205879,15.3282544 C4.32109227,15.6274794 4.57740016,15.8629147 4.88453852,15.854114 C5.19167687,15.8453132 5.4333386,15.5956091 5.42430512,15.2963841 L5.14612329,6.08189112 C5.13708981,5.78266615 4.88078192,5.54723081 4.57364357,5.55603155 C4.26650521,5.56483228 4.02484348,5.81453643 4.03387696,6.1137614 Z M10.1538771,6.08189112 L9.87569531,15.2963841 C9.86666183,15.5956091 10.1083236,15.8453132 10.4154619,15.854114 C10.7226003,15.8629147 10.9789082,15.6274794 10.9879416,15.3282544 L11.2661235,6.1137614 C11.2751569,5.81453643 11.0334952,5.56483228 10.7263569,5.55603155 C10.4192185,5.54723081 10.1629106,5.78266615 10.1538771,6.08189112 Z M5.8118173,2.30362325 L9.48818313,2.30362325 C9.56688185,2.30362325 9.61219904,2.24614983 9.59140703,2.17525279 L9.47353346,1.77332482 C9.41145719,1.56165572 9.13024758,1.3550725 8.9041839,1.3550725 L6.39581653,1.3550725 C6.16989701,1.3550725 5.88849128,1.56183291 5.82646697,1.77332482 L5.7085934,2.17525279 C5.68758958,2.24687203 5.73401632,2.30362325 5.8118173,2.30362325 Z"></path>
                    </g>
                </g>
            </g>
        </g>
    </g>
</svg>