<?xml version="1.0" encoding="iso-8859-1"?>
<!-- Generator: Adobe Illustrator 21.0.2, SVG Export Plug-In . SVG Version: 6.00 Build 0)  -->
<svg version="1.1" xmlns="http://www.w3.org/2000/svg" xmlns:xlink="http://www.w3.org/1999/xlink" x="0px" y="0px"
	 viewBox="0 0 500 500" style="enable-background:new 0 0 500 500;" xml:space="preserve">
<g id="my_x5F_designs_x5F_icon_x5F_02">
	<g id="XMLID_14_">
		<g>
			<path style="fill:currentColor;" d="M313.55,188.33l-195.71,195.7c-1.82,1.83-4.8,1.83-6.63,0l-19.26-19.26
				c-1.83-1.82-1.83-4.81,0-6.63l195.71-195.7L313.55,188.33z"/>
		</g>
		<g>
			<path style="fill:none;stroke:currentColor;stroke-width:4;stroke-miterlimit:10;" d="M313.55,188.33l-195.71,195.7
				c-1.82,1.83-4.8,1.83-6.63,0l-19.26-19.26c-1.83-1.82-1.83-4.81,0-6.63l195.71-195.7l32.59-32.6c1.82-1.83,4.81-1.83,6.63,0
				l19.27,19.26c1.82,1.82,1.82,4.81,0,6.63L313.55,188.33z"/>
			<polyline style="fill:none;stroke:currentColor;stroke-width:4;stroke-miterlimit:10;" points="287.65,162.43 287.66,162.44
				313.55,188.33 			"/>
		</g>
	</g>
	<polygon style="fill:none;stroke:currentColor;stroke-width:4;stroke-miterlimit:10;" points="406,136.341 392.855,149.486
		409.419,157.926 392.855,149.486 389.947,167.847 392.855,149.486 374.493,152.394 392.855,149.486 384.415,132.922
		392.855,149.486 	"/>
	<polygon style="fill:none;stroke:currentColor;stroke-width:4;stroke-miterlimit:10;" points="299.295,99.001 286.15,112.146
		302.714,120.586 286.15,112.146 283.242,130.508 286.15,112.146 267.788,115.054 286.15,112.146 277.71,95.582 286.15,112.146 	"/>
</g>
</svg>
