<?xml version="1.0" encoding="utf-8"?>
<!-- Generator: Adobe Illustrator 23.1.1, SVG Export Plug-In . SVG Version: 6.00 Build 0)  -->
<svg version="1.1" id="Layer_1" xmlns="http://www.w3.org/2000/svg" xmlns:xlink="http://www.w3.org/1999/xlink" x="0px" y="0px"
	 viewBox="0 0 25 24" style="enable-background:new 0 0 25 24;" xml:space="preserve">
<title>noun_Download_39028</title>
<desc>Created with Sketch.</desc>
<g id="Polished-Version-Video-Editor">
			<path id="Path" style="fill:currentColor;" d="M24.6,15.5l-5.9-8h-4.4v0.8h3.2l5.6,7.6h-3.9l-2.3,3H8l-2.3-3H1.8l5.6-7.6h3.2V7.5H6.3L0,15.7
					v6.4c0,0.4,0.9,1.3,1.8,1.3h21.4c1.1,0,1.8-1,1.8-1.3v-6.3L24.6,15.5z"/>
				<polygon  style="fill:currentColor;" points="13.1,16 17,11.9 16.3,11.1 13.1,14.5 13.1,0.5 11.9,0.5 11.9,14.5 8.7,11.1 8,11.9 11.9,16
					11.9,16 12,16 12.5,16.5 13,16 13.1,16 				"/>
			</g>
</svg>
