<?xml version="1.0" encoding="UTF-8"?>
<svg width="16px" height="20px" viewBox="0 0 16 20" version="1.1" xmlns="http://www.w3.org/2000/svg" xmlns:xlink="http://www.w3.org/1999/xlink">
    <!-- Generator: Sketch 61.2 (89653) - https://sketch.com -->
    <g id="Page-1" stroke="none" stroke-width="1" fill="none" fill-rule="evenodd">
        <g id="Desktop-HD" transform="translate(-1296.000000, -176.000000)" fill="currentColor" fill-rule="nonzero">
            <g id="noun_copy_2717360" transform="translate(1296.000000, 176.000000)">
                <g id="Group">
                    <path d="M14.3842506,16.9950007 L4.51575018,16.9950007 C3.78602833,16.9735859 3.20592153,16.3888276 3.20624999,15.6750006 L3.20624999,1.45200006 C3.20592153,0.738173032 3.78602833,0.153414746 4.51575018,0.131998941 L9.14625036,0.131998941 C9.4640227,0.131599508 9.77110221,0.244195327 10.0102504,0.448800018 L15.2955006,4.9500002 C15.5487896,5.16350081 15.6942235,5.47441714 15.6937518,5.80140023 L15.6937518,15.7014006 C15.6796767,16.4049603 15.103618,16.9740244 14.3842506,16.9950007 Z M4.51575018,1.15500005 C4.35063553,1.1585886 4.21875016,1.29051475 4.21875016,1.45200006 L4.21875016,15.7080006 C4.21875016,15.8694859 4.35063553,16.0014121 4.51575018,16.0050006 L14.3842506,16.0050006 C14.5493652,16.0014121 14.6812506,15.8694859 14.6812506,15.7080006 L14.6812506,5.80800023 C14.6808616,5.76987681 14.6636334,5.73377978 14.6340006,5.70900023 L14.6340006,5.70900023 L9.34875037,1.22760005 C9.29436104,1.18148299 9.22498758,1.15575367 9.15300036,1.15500005 L4.51575018,1.15500005 Z" id="Shape"></path>
                    <path d="M10.0237504,6.01260024 C9.42510566,6.00537325 8.94375036,5.52878633 8.94375036,4.9434002 L8.94375036,0.660000026 L9.9562504,0.660000026 L9.9562504,4.9434002 C9.95610354,4.98468818 9.98842065,5.01915976 10.0305004,5.0226002 L15.1875006,5.0226002 L15.1875006,6.01260024 L10.0237504,6.01260024 Z" id="Path"></path>
                    <path d="M11.2657504,19.6350008 L2.4232501,19.6350008 C1.43162279,19.6350008 0.627750023,18.8489919 0.627750023,17.8794007 L0.627750023,3.79500015 C0.627750023,3.66256642 0.682000473,3.53565059 0.778405699,3.44262801 C0.874810926,3.34960542 1.00531849,3.29823435 1.14075005,3.29995607 L1.14075005,3.29995607 C1.42034421,3.29995607 1.64700007,3.52161919 1.64700007,3.79500015 L1.64700007,17.8794007 C1.64700007,18.3022299 1.99756112,18.6450007 2.4300001,18.6450007 L11.2657504,18.6450007 C11.5453446,18.6450007 11.7720005,18.8666198 11.7720005,19.1400008 L11.7720005,19.1400008 C11.7720005,19.4133817 11.5453446,19.6350008 11.2657504,19.6350008 Z" id="Path"></path>
                    <polygon id="Path" points="9.73350039 1.26720005 9.73350039 5.22720021 14.3437506 5.22720021"></polygon>
                </g>
            </g>
        </g>
    </g>
</svg>