<?xml version="1.0" encoding="UTF-8"?>
<svg width="36px" height="36px" viewBox="0 0 36 36" version="1.1" xmlns="http://www.w3.org/2000/svg" xmlns:xlink="http://www.w3.org/1999/xlink">
    <!-- Generator: Sketch 64 (93537) - https://sketch.com -->
    <title>Shape</title>
    <desc>Created with Sketch.</desc>
    <g id="Verify-Account" stroke="none" stroke-width="1" fill="none" fill-rule="evenodd">
        <g id="Verify-Account-_06" transform="translate(-316.000000, -96.000000)" fill="currentColor">
            <g id="noun_Email_3039394" transform="translate(316.000000, 96.000000)">
                <path d="M19.3591385,16.8811707 L19.3044237,16.8811707 C18.8608847,18.0455107 18.0582072,18.6293649 16.8934808,18.6293649 C16.0197905,18.6293649 15.3172293,18.3234028 14.7834692,17.7148471 C14.2491269,17.10573 13.9807916,16.2602642 13.9807916,15.1835024 C13.9807916,13.7850593 14.3498254,12.6521576 15.0908033,11.7752536 C15.8317811,10.9011565 16.7217695,10.4643886 17.7671711,10.4643886 C18.7083818,10.4643886 19.3009313,10.8197537 19.5407451,11.5344137 L19.5791618,11.5344137 L19.6001164,11.3351173 C19.6414435,10.9348404 19.9877765,10.6328081 20.4045402,10.6328081 L20.9086147,10.6328081 C21.145518,10.6328081 21.3498254,10.7198248 21.5087311,10.8899285 C21.6676368,11.0594708 21.7369034,11.2643812 21.7130384,11.4917474 C21.4901048,13.6048505 21.378929,15.0156443 21.378929,15.7201991 C21.378929,16.5724017 21.6181607,17.0001871 22.1001164,17.0001871 C22.604773,17.0001871 23.0221187,16.6785059 23.3527357,16.0323365 C23.6792782,15.3861671 23.8445867,14.5407014 23.8445867,13.5015532 C23.8445867,12.0744788 23.3719441,10.9073319 22.4301513,9.99618249 C21.4883586,9.08447172 20.1711292,8.62917774 18.4854482,8.62917774 C16.6763679,8.62917774 15.1717113,9.23773345 13.9743888,10.4548449 C12.7735739,11.6691493 12.1752037,13.1512407 12.1752037,14.9028032 C12.1752037,16.5971032 12.7054715,17.933231 13.7642608,18.9066956 C14.8218859,19.88409 16.2846333,20.3708223 18.1519208,20.3708223 C19.1647264,20.3708223 20.1181607,20.2377709 21.0098952,19.9711067 C21.2636787,19.8958793 21.5157159,19.9363 21.7293364,20.0884389 C21.9423749,20.2405779 22.0582072,20.460646 22.0582072,20.7166436 L22.0582072,20.791871 C22.0582072,21.1354467 21.838766,21.4273738 21.5,21.5340394 C20.5122235,21.8450541 19.30617,22 17.887078,22 C15.5570431,22 13.6571595,21.3538306 12.1944121,20.0648602 C10.7316647,18.7758898 10,17.0434148 10,14.8651896 C10,12.6459823 10.7805588,10.7793331 12.3399302,9.26861035 C13.9027939,7.75508065 15.9126892,7 18.3690338,7 C20.6443539,7 22.4854482,7.58666118 23.8899884,8.75998353 C25.2974389,9.93386729 26,11.4788353 26,13.3982559 C26,14.9774692 25.5692666,16.2445451 24.7112922,17.1994835 C23.854482,18.151615 22.7892899,18.6293649 21.5209546,18.6293649 C20.8934808,18.6293649 20.3847497,18.4665594 19.9935972,18.1454396 C19.6018626,17.8209514 19.3917346,17.3993413 19.3591385,16.8811707 L19.3591385,16.8811707 Z M17.9994252,36 L2.62973016,36 C1.18352227,36 0,34.8503629 0,33.4450028 L0,16.400335 C0,15.4857621 0.0454095481,14.2964824 1.43701102,13.1423786 L2.81539198,12 L2.81539198,15.3701843 C2.81539198,15.7928532 3.00565224,16.1563372 3.35858215,16.4042434 L3.99259141,16.8514796 L16.4302092,25.8425461 C17.3763372,26.5265215 18.6236628,26.5265215 19.5703656,25.8425461 L32.0068338,16.8514796 L32.640843,16.4042434 C32.9931981,16.1563372 33.184608,15.7928532 33.184608,15.3701843 L33.184608,12 L34.5624142,13.1423786 C35.9534408,14.2964824 36,15.4857621 36,16.400335 L36,33.4450028 C36,34.8503629 34.8164777,36 33.369695,36 L18,36 L17.9994252,36 L17.9994252,36 Z M6.42645779,3 L29.5735422,3 C30.908036,3 32,4.03038092 32,5.29083095 L32,14.8074751 L30.2576153,16 L30.2576153,5.36149503 C30.2576153,5.01639137 29.959385,4.73483061 29.5944299,4.73483061 L6.40498985,4.73483061 C6.04003481,4.73483061 5.74180447,5.01639137 5.74180447,5.36149503 L5.74180447,16 L4,14.8074751 L4,5.29083095 C4,4.03038092 5.09196403,3 6.42645779,3 L6.42645779,3 Z M15,2 L15.9177614,1.09629168 C16.5510167,0.471798068 17.1788735,0 18,0 C18.8216664,0 19.4489833,0.471798068 20.0827785,1.09629168 L21,2 L15,2 L15,2 Z M18.7919827,12 C18.2621885,12 17.8315276,12.3144796 17.5,12.9434389 C17.1657638,13.5723982 17,14.3020362 17,15.1323529 C17,15.7200226 17.1143012,16.1792986 17.3407367,16.5062217 C17.5666306,16.8365385 17.8586132,17 18.2166847,17 C18.7713976,17 19.2047671,16.6883484 19.5238353,16.0690045 C19.840195,15.4496606 20,14.6227376 20,13.5848416 C20,13.0910633 19.8884074,12.7075792 19.6690141,12.4247738 C19.4490791,12.1414027 19.1565547,12 18.7919827,12 L18.7919827,12 Z" id="Shape"></path>
            </g>
        </g>
    </g>
</svg>
