<?xml version="1.0" encoding="UTF-8"?>
<svg width="60px" height="23px" viewBox="0 0 60 23" version="1.1" xmlns="http://www.w3.org/2000/svg" xmlns:xlink="http://www.w3.org/1999/xlink">
    <!-- Generator: Sketch 64 (93537) - https://sketch.com -->
    <title>GDPR compliant - GDPR Copy 11</title>
    <desc>Created with Sketch.</desc>
    <g id="Payment-gateway-" stroke="none" stroke-width="1" fill="none" fill-rule="evenodd">
        <g id="Payment-Modal-Bus-03" transform="translate(-554.000000, -693.000000)">
            <g id="GDPR-compliant---GDPR-Copy-11" transform="translate(554.000000, 693.000000)">
                <rect id="Rectangle-" fill="#2050E0" x="0" y="0" width="59.3599999" height="22.4" rx="3.35999999"></rect>
                <g id="Group" transform="translate(4.480000, 3.360000)" fill="#F8D12E" fill-rule="nonzero">
                    <polygon id="Shape" points="7.84002197 0 8.09401086 0.822057981 8.91607841 0.822057981 8.25105574 1.33009888 8.50504463 2.15215686 7.84002197 1.64379228 7.17513119 2.15215686 7.42916405 1.33009888 6.76392155 0.822057981 7.58598911 0.822057981"></polygon>
                    <polygon id="Shape" points="7.84002197 13.5278431 8.09401086 14.3501473 8.91607841 14.3501473 8.25105574 14.8581118 8.50504463 15.68 7.84002197 15.1720817 7.17513119 15.68 7.42916405 14.8581118 6.76392155 14.3501473 7.58598911 14.3501473"></polygon>
                    <polygon id="Shape" points="11.2219608 1.22980392 11.4758541 2.05185258 12.2980392 2.05185258 11.6328774 2.56009704 11.8869466 3.38196078 11.2219608 2.87371632 10.556843 3.38196078 10.8108682 2.56009704 10.1458823 2.05185258 10.9680675 2.05185258"></polygon>
                    <polygon id="Shape" points="13.9561883 10.08 14.2100661 10.9023286 15.0321568 10.9023286 14.3670798 11.4103368 14.6212653 12.2321568 13.9561883 11.7243336 13.2910673 12.2321568 13.545121 11.4103368 12.88 10.9023286 13.7021347 10.9023286"></polygon>
                    <polygon id="Shape" points="14.6039875 6.76392155 14.8578652 7.58590889 15.68 7.58590889 15.014923 8.09390613 15.2689326 8.91607841 14.6039875 8.40826612 13.9389105 8.91607841 14.193096 8.09390613 13.5278431 7.58590889 14.349802 7.58590889"></polygon>
                    <polygon id="Shape" points="1.07623233 6.76392155 1.33013082 7.58590889 2.15215686 7.58590889 1.48702549 8.09390613 1.74123179 8.91607841 1.07623233 8.40826612 0.411056991 8.91607841 0.66513137 8.09390613 0 7.58590889 0.822157955 7.58590889"></polygon>
                    <polygon id="Shape" points="1.63623233 10.08 1.89013082 10.9023286 2.71215686 10.9023286 2.04720138 11.4103368 2.30105589 12.2321568 1.63623233 11.7243336 0.971100963 12.2321568 1.22513137 11.4103368 0.559999999 10.9023286 1.38220193 10.9023286"></polygon>
                    <polygon id="Shape" points="13.9561883 3.35999999 14.2100661 4.18232865 15.0321568 4.18232865 14.3670798 4.6903368 14.6212653 5.51215685 13.9561883 5.00433365 13.2910673 5.51215685 13.545121 4.6903368 12.88 4.18232865 13.7021347 4.18232865"></polygon>
                    <polygon id="Shape" points="1.91623233 3.35999999 2.17013082 4.18232865 2.99215686 4.18232865 2.32720138 4.6903368 2.58105589 5.51215685 1.91623233 5.00433365 1.25110096 5.51215685 1.50513137 4.6903368 0.839999998 4.18232865 1.66220193 4.18232865"></polygon>
                    <polygon id="Shape" points="11.8369287 12.9129411 12.0908064 13.7348755 12.9129411 13.7348755 12.2476883 14.2431636 12.5018738 15.065098 11.8369287 14.5571335 11.1716758 15.065098 11.4259053 14.2431636 10.7607843 13.7348755 11.582919 13.7348755"></polygon>
                    <polygon id="Shape" points="4.45806119 1.22980392 4.71191571 2.05185258 5.53411764 2.05185258 4.86898627 2.56009704 5.12319256 3.38196078 4.45806119 2.87371632 3.79306174 3.38196078 4.04709215 2.56009704 3.38196078 2.05185258 4.20398681 2.05185258"></polygon>
                    <polygon id="Shape" points="3.84307129 12.9129411 4.09708094 13.7352984 4.91921568 13.7352984 4.25413866 14.2431107 4.50814831 15.065098 3.84307129 14.5574244 3.17812619 15.065098 3.43213583 14.2431107 2.76705882 13.7352984 3.58901768 13.7352984"></polygon>
                </g>
                <path d="M25.1999999,8.733617 C25.1999999,10.315086 26.4113946,11.307234 27.8994658,11.307234 C28.8416617,11.307234 29.5670029,10.9267863 30.1054005,10.3374653 L30.1054005,8.39046807 L27.6975667,8.39046807 L27.6975667,9.45721367 L28.8416617,9.45721367 L28.8416617,9.8749602 C28.6397626,10.0390749 28.2883085,10.1733506 27.8994658,10.1733506 C27.0843916,10.1733506 26.5086053,9.54673078 26.5086053,8.733617 C26.5086053,7.92050322 27.0843916,7.29388343 27.8994658,7.29388343 C28.3705637,7.29388343 28.7519287,7.55497501 28.9538278,7.88320442 L30.0306231,7.3162627 C29.6642136,6.69710267 28.9912166,6.15999999 27.8994658,6.15999999 C26.4113946,6.15999999 25.1999999,7.152148 25.1999999,8.733617 Z M30.8606528,11.2177169 L30.8606528,6.24205734 L32.9544213,6.24205734 C34.5247477,6.24205734 35.6538872,7.18198703 35.6538872,8.72615724 C35.6538872,10.2703275 34.5247477,11.2177169 32.961899,11.2177169 L30.8606528,11.2177169 Z M32.1468249,10.098753 L32.9544213,10.098753 C33.8293174,10.098753 34.3378041,9.46467343 34.3378041,8.72615724 C34.3378041,7.95780202 33.8741839,7.36102126 32.961899,7.36102126 L32.1468249,7.36102126 L32.1468249,10.098753 Z M36.2969732,11.2177169 L36.2969732,6.24205734 L38.79454,6.24205734 C39.9162017,6.24205734 40.5293768,6.99549305 40.5293768,7.89812394 C40.5293768,8.79329508 39.9162017,9.53181127 38.79454,9.53181127 L37.5831453,9.53181127 L37.5831453,11.2177169 L36.2969732,11.2177169 Z M39.2207714,7.89066418 C39.2207714,7.54751525 38.9665281,7.32372246 38.6225518,7.32372246 L37.5831453,7.32372246 L37.5831453,8.44268638 L38.6225518,8.44268638 C38.9665281,8.44268638 39.2207714,8.22635336 39.2207714,7.89066418 Z M43.8868842,11.2177169 L43.0493768,9.53181127 L42.3913352,9.53181127 L42.3913352,11.2177169 L41.1051631,11.2177169 L41.1051631,6.24205734 L43.6027299,6.24205734 C44.7094361,6.24205734 45.3375667,6.97311377 45.3375667,7.89812394 C45.3375667,8.76345604 44.8066468,9.22596113 44.3430266,9.39007584 L45.3599999,11.2177169 L43.8868842,11.2177169 Z M44.0289613,7.88320442 C44.0289613,7.54005549 43.744807,7.32372246 43.4083085,7.32372246 L42.3913352,7.32372246 L42.3913352,8.44268638 L43.4083085,8.44268638 C43.744807,8.44268638 44.0289613,8.22635336 44.0289613,7.88320442 Z" id="GDPR" fill="#FFFFFF"></path>
                <path d="M14.08,10.7163636 L13.84,10.7163636 L13.84,9.97181816 C13.84,9.10524998 13.158,8.39999998 12.32,8.39999998 C11.482,8.39999998 10.8,9.10524998 10.8,9.97181816 L10.8,10.7163636 L10.56,10.7163636 C10.295,10.7163636 10.08,10.9386932 10.08,11.2127272 L10.08,13.1981818 C10.08,13.4722159 10.295,13.6945454 10.56,13.6945454 L14.08,13.6945454 C14.345,13.6945454 14.56,13.4722159 14.56,13.1981818 L14.56,11.2127272 C14.56,10.9386932 14.345,10.7163636 14.08,10.7163636 Z M13.04,10.7163636 L11.6,10.7163636 L11.6,9.97181816 C11.6,9.56128407 11.923,9.22727271 12.32,9.22727271 C12.717,9.22727271 13.04,9.56128407 13.04,9.97181816 L13.04,10.7163636 Z" id="Shape" fill="#FFFFFF" fill-rule="nonzero"></path>
                <text id="Compliant" font-family="HelveticaNeue-Bold, Helvetica Neue" font-size="4.47999999" font-weight="bold" letter-spacing="0.112000002" fill="#FFFFFF">
                    <tspan x="25.1999999" y="16.88">COMPLIANT</tspan>
                </text>
            </g>
        </g>
    </g>
</svg>