<?xml version="1.0" encoding="UTF-8"?>
<svg viewBox="0 0 22 23" version="1.1" xmlns="http://www.w3.org/2000/svg" xmlns:xlink="http://www.w3.org/1999/xlink">
    <!-- Generator: Sketch 59.1 (86144) - https://sketch.com -->
    <title>grid icon</title>
    <desc>Created with Sketch.</desc>
    <g style="fill:currentColor; stroke:none" id="Polished-Version-Video-Editor">

                <path d="M10.625,11.2820513 L2.375,11.2820513 C2.168,11.2820513 2,11.1097436 2,10.8974359 L2,2.43589744 C2,2.22358974 2.168,2.05128205 2.375,2.05128205 L10.625,2.05128205 C10.832,2.05128205 11,2.22358974 11,2.43589744 L11,10.8974359 C11,11.1097436 10.832,11.2820513 10.625,11.2820513 Z M2.75,10.5128205 L10.25,10.5128205 L10.25,2.82051282 L2.75,2.82051282 L2.75,10.5128205 Z" id="Shape"></path>
                <path d="M19.625,11.2820513 L11.375,11.2820513 C11.168,11.2820513 11,11.1097436 11,10.8974359 L11,2.43589744 C11,2.22358974 11.168,2.05128205 11.375,2.05128205 L19.625,2.05128205 C19.832,2.05128205 20,2.22358974 20,2.43589744 L20,10.8974359 C20,11.1097436 19.832,11.2820513 19.625,11.2820513 Z M11.75,10.5128205 L19.25,10.5128205 L19.25,2.82051282 L11.75,2.82051282 L11.75,10.5128205 Z" id="Shape"></path>
                <path d="M10.625,20.5128205 L2.375,20.5128205 C2.168,20.5128205 2,20.3405128 2,20.1282051 L2,11.6666667 C2,11.454359 2.168,11.2820513 2.375,11.2820513 L10.625,11.2820513 C10.832,11.2820513 11,11.454359 11,11.6666667 L11,20.1282051 C11,20.3405128 10.832,20.5128205 10.625,20.5128205 Z M2.75,19.7435897 L10.25,19.7435897 L10.25,12.0512821 L2.75,12.0512821 L2.75,19.7435897 Z" id="Shape"></path>
                <path d="M19.625,20.5128205 L11.375,20.5128205 C11.168,20.5128205 11,20.3405128 11,20.1282051 L11,11.6666667 C11,11.454359 11.168,11.2820513 11.375,11.2820513 L19.625,11.2820513 C19.832,11.2820513 20,11.454359 20,11.6666667 L20,20.1282051 C20,20.3405128 19.832,20.5128205 19.625,20.5128205 Z M11.75,19.7435897 L19.25,19.7435897 L19.25,12.0512821 L11.75,12.0512821 L11.75,19.7435897 Z" id="Shape"></path>
                <path d="M2.5,22.5641026 C2.224,22.5641026 2,22.3956239 2,22.1880342 L2,0.376068376 C2,0.168478632 2.224,-8.8817842e-15 2.5,-8.8817842e-15 C2.776,-8.8817842e-15 3,0.168478632 3,0.376068376 L3,22.1880342 C3,22.3956239 2.776,22.5641026 2.5,22.5641026 Z" id="Path"></path>
                <path d="M19.5,22.5641026 C19.224,22.5641026 19,22.3956239 19,22.1880342 L19,0.376068376 C19,0.168478632 19.224,-8.8817842e-15 19.5,-8.8817842e-15 C19.776,-8.8817842e-15 20,0.168478632 20,0.376068376 L20,22.1880342 C20,22.3956239 19.776,22.5641026 19.5,22.5641026 Z" id="Path"></path>
                <path d="M21.6333333,3.07692308 L0.366666667,3.07692308 C0.164266667,3.07692308 0,2.84717949 0,2.56410256 C0,2.28102564 0.164266667,2.05128205 0.366666667,2.05128205 L21.6333333,2.05128205 C21.8357333,2.05128205 22,2.28102564 22,2.56410256 C22,2.84717949 21.8357333,3.07692308 21.6333333,3.07692308 Z" id="Path"></path>
                <path d="M21.6333333,20.5128205 L0.366666667,20.5128205 C0.164266667,20.5128205 0,20.2830769 0,20 C0,19.7169231 0.164266667,19.4871795 0.366666667,19.4871795 L21.6333333,19.4871795 C21.8357333,19.4871795 22,19.7169231 22,20 C22,20.2830769 21.8357333,20.5128205 21.6333333,20.5128205 Z" id="Path"></path>
            </g>

</svg>
