<?xml version="1.0" encoding="UTF-8"?>
<svg width="17px" height="14px" viewBox="0 0 17 14" version="1.1" xmlns="http://www.w3.org/2000/svg" xmlns:xlink="http://www.w3.org/1999/xlink">
    <!-- Generator: Sketch 61.2 (89653) - https://sketch.com -->
    <g id="Page-1" stroke="none" stroke-width="1" fill="none" fill-rule="evenodd">
        <g id="Desktop-HD" transform="translate(-1272.000000, -137.000000)" fill="currentColor" fill-rule="nonzero">
            <g id="noun_Layers_52559-Copy" transform="translate(1272.000000, 137.000000)">
                <path d="M14.2730414,8.81280609 L16.9998111,10.0727372 L8.49990556,14 L0,10.0727372 L2.7267697,8.81280609 L3.32516305,9.08924361 L1.1967867,10.0727372 L8.49990556,13.4469436 L15.8030244,10.0727372 L13.6746481,9.089425 L14.2730414,8.81280609 Z M13.6746481,6.01668783 L15.8030244,7.00018139 L8.50009444,10.3742064 L1.19697559,7 L3.32535194,6.01650644 L2.72695859,5.74006893 L0.00018888679,7 L8.50009444,10.9272628 L17,7 L14.2730414,5.74025032 L13.6746481,6.01668783 Z M17,3.92726283 L8.50009444,0 L0.00018888679,3.92726283 L8.50009444,7.85452567 L17,3.92726283 Z" id="Shape"></path>
            </g>
        </g>
    </g>
</svg>