<?xml version="1.0" encoding="UTF-8"?>
<svg width="22px" height="17px" viewBox="0 0 22 17" version="1.1" xmlns="http://www.w3.org/2000/svg" xmlns:xlink="http://www.w3.org/1999/xlink">
    <g id="icons-choices" stroke-width="1" fill-rule="evenodd">
        <g id="Desktop-HD" transform="translate(-1222.000000, -118.000000)" fill="currentColor" fill-rule="nonzero">
            <g id="noun_Share_615136" transform="translate(1222.000000, 118.000000)">
                <g id="Group">
                    <g id="Path">
                        <path style="fill:currentColor; stroke:currentColor; stroke: none" d="M13.2647059,4.25354329 C5.97883518,4.41327711 0.111401529,9.95403489 0.00156782353,16.80433 C0.0949345294,16.6943874 0.190032765,16.5857962 0.286823706,16.4785936 C3.01672865,13.455024 7.09301871,11.5357143 11.6470588,11.5357143 C12.1936579,11.5357143 12.7333742,11.5633636 13.2647059,11.6172536 L13.2647059,14.8705496 C13.2647059,15.5436391 13.6774841,15.7158036 14.2000391,15.2429954 L21.3881962,8.7391475 C21.9047665,8.27175436 21.9107512,7.51937504 21.3881962,7.04656679 L14.2000391,0.542718929 C13.6834688,0.0753257857 13.2647059,0.241848071 13.2647059,0.915164643 L13.2647059,4.25354329 L13.2647059,4.25354329 Z"></path>
                    </g>
                </g>
            </g>
        </g>
    </g>
</svg>
