<svg xmlns="http://www.w3.org/2000/svg" viewBox="0 0 500 500"><title>colors</title><path d="M333.21,259.16c3.15-8.16,10.14-14.47,21.37-19.29,8.21-3.53,17.93-5.73,27.32-7.85,16.39-3.71,33.33-7.54,42.23-18.14,4-4.73,3.91-8.08,3.51-10.19-1-5.32-6.86-14.21-29.09-26.36a289.32,289.32,0,0,0-138.12-34.9,282.73,282.73,0,0,0-65.77,7.68c-50.12,12-90.79,37.27-114.52,71.16-27.42,39.16-30.27,91-6.93,126,19.59,29.42,56.65,48.73,113.3,59.06,61.64,11.23,149.6,15.26,218.58-29.32,8.48-5.48,27.9-20,25.16-36.93-1-6.13-4.79-11.67-11.27-16.47a59.11,59.11,0,0,0-18.08-8.74c-4.88-1.46-9.89-2.58-15.18-3.77-11.37-2.55-23.12-5.18-33.82-11.43C338,291.55,327.09,275,333.21,259.16ZM294.83,194c1.23-10.36,15.32-17.67,32.69-17.67a63.71,63.71,0,0,1,6.46.33c13,1.33,24.74,6.63,30.51,13.83,2.81,3.5,4.06,7.29,3.62,11-1.38,11.62-18.94,19.39-39.15,17.34-13-1.33-24.74-6.63-30.51-13.83C295.65,201.44,294.39,197.65,294.83,194Zm-138.17,1.11c2.08-.21,4.15-.31,6.18-.31,10.72,0,20.51,2.81,26.47,7.78,3.45,2.87,5.43,6.34,5.74,10,1,11.66-14.69,22.79-34.91,24.8-13.06,1.29-25.57-1.56-32.66-7.47-3.45-2.87-5.43-6.34-5.74-10C120.79,208.23,136.44,197.1,156.66,195.09ZM96,293.13c-3.45-2.87-5.43-6.34-5.74-10-1-11.66,14.69-22.79,34.91-24.8,2.08-.21,4.15-.31,6.18-.31,10.72,0,20.51,2.81,26.47,7.78,3.45,2.87,5.43,6.34,5.74,10,1,11.66-14.69,22.79-34.91,24.8C115.59,301.89,103.08,299,96,293.13Zm74.91,70.69c-13,1.29-25.57-1.57-32.66-7.47-3.45-2.87-5.43-6.34-5.74-10-1-11.66,14.69-22.79,34.91-24.8,2.08-.21,4.15-.31,6.18-.31,10.72,0,20.51,2.81,26.47,7.78,3.45,2.87,5.43,6.34,5.74,10C206.77,350.68,191.12,361.8,170.9,363.81Zm34.55-167.4c-1-11.66,14.69-22.79,34.91-24.8,2.08-.21,4.15-.31,6.18-.31,10.72,0,20.52,2.81,26.48,7.78,3.45,2.87,5.43,6.33,5.74,10,1,11.66-14.69,22.79-34.91,24.8-13,1.29-25.57-1.57-32.66-7.47C207.74,203.56,205.76,200.1,205.45,196.42Zm45.41,188.85c-13,1.29-25.57-1.56-32.66-7.47-3.45-2.87-5.43-6.34-5.74-10-1-11.66,14.69-22.79,34.91-24.8,2.08-.21,4.15-.31,6.18-.31,10.72,0,20.51,2.81,26.47,7.78,3.45,2.87,5.43,6.34,5.74,10C286.74,372.13,271.08,383.25,250.87,385.26Zm104.38-55.42c6.35,0,12.07,1.22,16.36,3.64,3.79,2.14,6.27,5.13,7.17,8.65,2.87,11.29-10.71,25.33-30.28,31.29-12.7,3.87-25.52,3.5-33.46-1-3.79-2.14-6.27-5.13-7.17-8.65-2.87-11.29,10.71-25.33,30.28-31.29A59.29,59.29,0,0,1,355.24,329.84Z" style="fill:currentColor"/></svg>
