<?xml version="1.0" encoding="UTF-8"?>
<svg width="20px" height="22px" viewBox="0 0 20 22" version="1.1" xmlns="http://www.w3.org/2000/svg"
     xmlns:xlink="http://www.w3.org/1999/xlink">
  <g stroke="none" stroke-width="1" fill="none" fill-rule="evenodd">
    <g transform="translate(-226.000000, -1064.000000)" fill="#FFFFFF">
      <g transform="translate(194.000000, 1050.000000)">
        <g transform="translate(32.000000, 14.000000)">
          <g>
            <path
              d="M8.05263158,17.9807692 L8.05263158,4.01923077 C8.05263158,-1.33974359 6.21724894e-15,-1.33974359 6.21724894e-15,4.01923077 L6.21724894e-15,17.9807692 C6.21724894e-15,23.3397436 8.05263158,23.3397436 8.05263158,17.9807692 Z M6.19075145,17.9807692 L6.19075145,4.01923077 C6.19075145,2.56196581 5.07362336,1.33974359 3.67721326,1.1517094 C5.35290538,0.916666667 6.8889565,2.27991453 6.8889565,4.01923077 L6.8889565,17.9807692 C6.8889565,19.7200855 5.35290538,21.0363248 3.67721326,20.8482906 C5.07362336,20.6602564 6.19075145,19.4380342 6.19075145,17.9807692 Z"></path>
            <path
              d="M19.0526316,17.9807692 L19.0526316,4.01923077 C19.0526316,-1.33974359 11,-1.33974359 11,4.01923077 L11,17.9807692 C11,23.3397436 19.0526316,23.3397436 19.0526316,17.9807692 Z M17.1907514,17.9807692 L17.1907514,4.01923077 C17.1907514,2.56196581 16.0736234,1.33974359 14.6772133,1.1517094 C16.3529054,0.916666667 17.8889565,2.27991453 17.8889565,4.01923077 L17.8889565,17.9807692 C17.8889565,19.7200855 16.3529054,21.0363248 14.6772133,20.8482906 C16.0736234,20.6602564 17.1907514,19.4380342 17.1907514,17.9807692 Z"
            ></path>
          </g>
        </g>
      </g>
    </g>
  </g>
</svg>
