<?xml version="1.0" encoding="UTF-8"?>
<svg width="25px" height="30px" viewBox="0 0 25 30" version="1.1" xmlns="http://www.w3.org/2000/svg"
     xmlns:xlink="http://www.w3.org/1999/xlink">
  <g stroke="none" stroke-width="1" fill="none" fill-rule="evenodd">
    <g transform="translate(-228.000000, -1058.000000)" fill="#FFFFFF" fill-rule="nonzero">
      <g transform="translate(197.000000, 1048.000000)">
        <g transform="translate(31.000000, 10.000000)">
          <path
            d="M23.4672304,12.2799906 L5.35588443,0.577092533 C3.10077519,-0.911137275 0,0.644739342 0,3.35061172 L0,26.688761 C0,29.3269865 3.10077519,30.8828632 5.35588443,29.4622802 L23.4672304,17.7593821 C25.5109232,16.4740927 25.5109232,13.5652799 23.4672304,12.2799906 Z M7.96335447,25.4711184 C7.89288231,25.5387652 6.20155039,26.688761 5.56730092,27.026995 C5.28541226,27.1622886 4.58069063,27.5005227 3.87596899,27.5005227 C3.59408034,27.5005227 3.24171952,27.4328759 2.95983087,27.2975823 C2.3255814,26.9593482 2.04369274,26.2152333 2.04369274,25.1328844 C2.04369274,23.0358333 2.1141649,17.4887949 2.1141649,17.4887949 L2.95983087,17.4887949 C2.95983087,17.4887949 2.8893587,23.0358333 2.8893587,25.1328844 C2.8893587,25.6740588 2.95983087,26.3505269 3.38266385,26.6211142 C3.87596899,26.8917014 4.65116279,26.6211142 5.14446794,26.3505269 C5.70824524,26.0122929 7.39957717,24.8622971 7.39957717,24.7946503 C7.61099366,24.6593567 7.82241015,24.7270035 7.96335447,24.8622971 C8.17477097,25.0652375 8.1042988,25.3358248 7.96335447,25.4711184 Z M20.5778717,13.2270459 C20.5073996,13.3623395 20.3664553,13.4299863 20.2255109,13.4299863 C20.1550388,13.4299863 20.0845666,13.4299863 20.0140944,13.3623395 C19.8731501,13.2270459 6.69485553,4.50060748 4.93305144,3.41825853 C3.80549683,2.67414362 3.31219168,2.74179043 3.10077519,2.80943724 C2.67794221,3.01237767 2.60747005,4.23002024 2.60747005,4.56825429 C2.60747005,4.77119472 2.39605356,4.97413515 2.18463707,4.97413515 C1.97322058,4.97413515 1.76180409,4.77119472 1.76180409,4.56825429 C1.83227625,3.48590534 1.97322058,2.4712032 2.74841438,2.06532234 C3.38266385,1.72708829 4.22832981,1.99767553 5.42635659,2.74179043 C7.18816068,3.82413938 20.2959831,12.5505778 20.4369274,12.6858714 C20.6483439,12.7535182 20.7188161,13.0241055 20.5778717,13.2270459 Z"></path>
        </g>
      </g>
    </g>
  </g>
</svg>
