<?xml version="1.0" encoding="UTF-8"?>
<svg viewBox="0 0 26 21" version="1.1" xmlns="http://www.w3.org/2000/svg" xmlns:xlink="http://www.w3.org/1999/xlink">
    <!-- Generator: Sketch 59.1 (86144) - https://sketch.com -->
    <title>Path</title>
    <desc>Created with Sketch.</desc>
    <g id="Polished-Version-Video-Editor">
        <g id="Desktop-HD" transform="translate(-1219.000000, -277.000000)" style="fill:currentColor; stroke:currentColor; stroke: none">
            <path d="M1226.2381,277 C1226.58119,276.99916 1226.91418,277.216697 1227.04326,277.525889 C1227.17233,277.835082 1227.0895,278.216817 1226.84296,278.448896 L1221.94991,283.208292 L1237.30616,283.208292 C1241.30977,283.208292 1244.56449,286.374095 1244.56449,290.268341 C1244.56449,294.16263 1241.30977,297.319707 1237.30616,297.319707 L1220.91171,297.319707 C1220.45384,297.325819 1220.0327,296.922054 1220.0327,296.476645 C1220.0327,296.031235 1220.45384,295.627358 1220.91171,295.633652 L1237.30616,295.633652 C1240.37948,295.633652 1242.83116,293.257762 1242.83116,290.268341 C1242.83116,287.278949 1240.37948,284.894277 1237.30616,284.894277 L1221.94991,284.894277 L1226.84296,289.653659 C1227.1644,289.966325 1227.1644,290.535261 1226.84296,290.847899 C1226.52153,291.160565 1225.93662,291.160565 1225.61519,290.847899 L1219.24157,284.648404 C1218.91948,284.336126 1218.91948,283.766443 1219.24157,283.454165 L1225.61519,277.254657 C1225.77667,277.09349 1226.00674,276.999435 1226.2381,277 Z" id="Path" transform="translate(1231.782246, 287.159854) scale(-1, 1) translate(-1231.782246, -287.159854) "></path>
        </g>
    </g>
</svg>
