<?xml version="1.0" encoding="UTF-8"?>
<svg width="61px" height="26px" viewBox="0 0 61 26" version="1.1" xmlns="http://www.w3.org/2000/svg" xmlns:xlink="http://www.w3.org/1999/xlink">
    <!-- Generator: Sketch 64 (93537) - https://sketch.com -->
    <title>Stripe_(company)-Logo.wine</title>
    <desc>Created with Sketch.</desc>
    <g id="Payment-gateway-" stroke="none" stroke-width="1" fill="none" fill-rule="evenodd">
        <g id="Payment-Modal-Bus-03" transform="translate(-455.000000, -691.000000)" fill="#32325D">
            <g id="Stripe_(company)-Logo.wine" transform="translate(455.000000, 691.000000)">
                <path d="M60.4800014,13.2882181 C60.4800014,9.03000021 58.3771749,5.67000013 54.3580631,5.67000013 C50.3219931,5.67000013 47.8800011,9.03000021 47.8800011,13.2549508 C47.8800011,18.2616836 50.7629083,20.7900005 54.900728,20.7900005 C56.9187631,20.7900005 58.4450081,20.3408916 59.5981709,19.7088123 L59.5981709,16.3820796 C58.4450081,16.9476241 57.1222624,17.2969311 55.4433929,17.2969311 C53.79844,17.2969311 52.3400281,16.7313865 52.1534871,14.7686142 L60.4460848,14.7686142 C60.4460848,14.5523766 60.4800014,13.6874261 60.4800014,13.2882181 L60.4800014,13.2882181 Z M52.1026122,11.7080201 C52.1026122,9.82841606 53.2727334,9.04663387 54.3411049,9.04663387 C55.3755598,9.04663387 56.4778479,9.82841606 56.4778479,11.7080201 L52.1026122,11.7080201 Z" id="path18"></path>
                <path d="M41.3910009,5.04000011 C39.7071827,5.04000011 38.6247281,5.82456866 38.0233645,6.37035547 L37.8000009,5.31289352 L34.0200008,5.31289352 L34.0200008,25.2000006 L38.3154554,24.2960412 L38.3326372,19.469239 C38.9511827,19.9126908 39.8618191,20.5437568 41.3738191,20.5437568 C44.4493646,20.5437568 47.2500011,18.0877161 47.2500011,12.6810155 C47.2328193,7.73482251 44.3978192,5.04000011 41.3910009,5.04000011 L41.3910009,5.04000011 Z M40.3600918,16.7914725 C39.3463645,16.7914725 38.7450009,16.4332999 38.3326372,15.9898481 L38.3154554,9.6621322 C38.7621827,9.1675129 39.3807282,8.82639614 40.3600918,8.82639614 C41.9236373,8.82639614 43.0060919,10.5660916 43.0060919,12.8004064 C43.0060919,15.0858887 41.9408191,16.7914725 40.3600918,16.7914725 L40.3600918,16.7914725 Z" id="path20"></path>
                <polygon id="polygon22" points="32.7600007 0 28.3500006 0.909455274 28.3500006 4.4100001 32.7600007 3.48338529"></polygon>
                <polygon id="rect24" points="28.3500006 5.67000013 32.7600007 5.67000013 32.7600007 20.1600005 28.3500006 20.1600005"></polygon>
                <path d="M24.1461824,6.48032108 L23.8712733,5.21653047 L20.1600005,5.21653047 L20.1600005,20.1600005 L24.4554551,20.1600005 L24.4554551,10.0325974 C25.4691824,8.71757201 27.1873643,8.95666753 27.7200006,9.1445283 L27.7200006,5.21653047 C27.1701824,5.01159146 25.1599097,4.63586993 24.1461824,6.48032108 Z" id="path26"></path>
                <path d="M15.6077423,1.89000004 L11.3574196,2.74589195 L11.3400003,15.9299193 C11.3400003,18.3659193 13.2735487,20.1600005 15.8516133,20.1600005 C17.2800004,20.1600005 18.3251617,19.9131086 18.9000004,19.6168383 L18.9000004,16.2755679 C18.3425811,16.4895409 15.5903229,17.2466761 15.5903229,14.810676 L15.5903229,8.96756777 L18.9000004,8.96756777 L18.9000004,5.46170283 L15.5903229,5.46170283 L15.6077423,1.89000004 Z" id="path28"></path>
                <path d="M4.26713396,10.1727695 C4.26713396,9.52476945 4.8068505,9.27553867 5.70075603,9.27553867 C6.98258284,9.27553867 8.60173248,9.65769253 9.88355928,10.3389233 L9.88355928,6.43430784 C8.48366948,5.88600013 7.10064583,5.67000013 5.70075603,5.67000013 C2.27692919,5.67000013 0,7.43123094 0,10.3721541 C0,14.9580003 6.409134,14.2269234 6.409134,16.2041542 C6.409134,16.9684619 5.73448832,17.2176927 4.78998436,17.2176927 C3.39009457,17.2176927 1.6022835,16.6527696 0.185527563,15.8884619 L0.185527563,19.8429235 C1.75407878,20.5075389 3.33949614,20.7900005 4.78998436,20.7900005 C8.29814192,20.7900005 10.7100002,19.0786158 10.7100002,16.1044619 C10.6931341,11.1530772 4.26713396,12.0336926 4.26713396,10.1727695 Z" id="path30"></path>
            </g>
        </g>
    </g>
</svg>