<?xml version="1.0" encoding="UTF-8"?>
<svg width="208px" height="40px" viewBox="0 0 208 40" version="1.1" xmlns="http://www.w3.org/2000/svg" xmlns:xlink="http://www.w3.org/1999/xlink">
    <g stroke="none" stroke-width="1" fill="none" fill-rule="evenodd">
        <g transform="translate(-428.000000, -154.000000)" fill="currentColor" fill-rule="nonzero">
            <g transform="translate(428.000000, 154.000000)">
                <path d="M75.9,13.1 L71.6,8.4 L62.5,8.4 L75.9,23.4 L89.3,8.4 L80.1,8.4 L75.9,13.1 Z M75.9,33.6 L71.6,38.3 L62.5,38.3 L75.9,23.4 L89.3,38.3 L80.1,38.3 L75.9,33.6 Z M29.7,7.6 L18.7,7.6 L18.7,38.3 L11,38.3 L11,7.6 L0,7.6 L0,0.2 L29.7,0.2 L29.7,7.6 Z M59.6,8.4 L59.6,38.4 L51.7,38.4 L51.7,34.4 C49.6,37.4 46,39.2 42.3,39.1 C34.5,39.1 28.6,32.7 28.6,23.5 C28.6,14.3 34.7,7.7 42.3,7.7 C46.1,7.6 49.6,9.4 51.8,12.5 L51.8,8.4 L59.6,8.4 Z M51.8,23.4 C51.8,18.5 48.5,15.2 44.1,15.2 C39.7,15.2 36.5,18.5 36.5,23.4 C36.5,28.3 39.8,31.6 44.1,31.6 C48.4,31.6 51.8,28.3 51.8,23.4 Z M120.5,8.4 L120.5,38.4 L112.7,38.4 L112.7,34.4 C110.6,37.4 107,39.2 103.3,39.1 C95.5,39.1 89.6,32.7 89.6,23.5 C89.6,14.3 95.5,7.8 103.2,7.8 C107,7.7 110.5,9.5 112.7,12.6 L112.7,8.4 L120.5,8.4 L120.5,8.4 Z M112.7,23.4 C112.7,18.5 109.4,15.2 105,15.2 C100.6,15.2 97.4,18.5 97.4,23.4 C97.4,28.3 100.7,31.6 105,31.6 C109.3,31.6 112.7,28.3 112.7,23.4 Z M172.4,19.4 L172.4,38.4 L164.6,38.4 L164.6,21.1 C164.6,17.3 163.2,15.2 159.4,15.2 C155.3,15.2 153.2,17.9 153.2,22.7 L153.2,38.4 L145.4,38.4 L145.4,21.1 C145.4,17.3 144,15.2 140.2,15.2 C136.1,15.2 133.9,17.9 133.9,22.7 L133.9,38.4 L126.1,38.4 L126.1,8.4 L133.9,8.4 L133.9,12.4 C135.9,9.4 139.2,7.7 142.8,7.8 C146.7,7.6 150.4,9.8 151.9,13.5 C154,9.9 157.8,7.8 161.9,7.8 C168.5,7.7 172.4,12.1 172.4,19.4 Z M207.9,23.3 C207.9,31.9 200.9,38.9 192.3,38.9 C183.7,38.9 176.7,31.9 176.7,23.3 C176.7,14.7 183.7,7.7 192.3,7.7 C200.9,7.7 207.9,14.7 207.9,23.3 Z M184.6,23.3 C184.6,28.3 188,31.5 192.3,31.5 C196.6,31.5 200,28.2 200,23.3 C200,18.4 196.6,15.1 192.3,15.1 C188,15.1 184.6,18.4 184.6,23.3 Z"></path>
            </g>
        </g>
    </g>
</svg>
