<?xml version="1.0" encoding="utf-8"?>
<!-- Generator: Adobe Illustrator 23.1.1, SVG Export Plug-In . SVG Version: 6.00 Build 0)  -->
<svg version="1.1" id="Layer_1" xmlns="http://www.w3.org/2000/svg" xmlns:xlink="http://www.w3.org/1999/xlink" x="0px" y="0px"
	 viewBox="0 0 28 27" style="color: white;enable-background:new 0 0 28 27;" xml:space="preserve">
<title>noun_template_494243</title>
<desc>Created with Sketch.</desc>
<g id="Polished-Version-Video-Editor">

			<path style="fill:currentColor;" id="Shape" d="M25.9,0.5H2.1C0.9,0.5,0,1.4,0,2.4v22.1c0,1.1,0.9,2,2.1,2h23.8c1.2,0,2.1-0.9,2.1-2V2.4
				C28,1.4,27.1,0.5,25.9,0.5z M26.6,2.4v8.4h-14V1.8h13.3C26.3,1.8,26.6,2.1,26.6,2.4z M1.4,24.5V2.4c0-0.4,0.3-0.7,0.7-0.7h9.1
				v23.4H2.1C1.7,25.2,1.4,24.9,1.4,24.5z M25.9,25.2H12.6v-13h14v12.3C26.6,24.9,26.3,25.2,25.9,25.2z"/>
		</g>

</svg>
