<?xml version="1.0" encoding="UTF-8"?>
<svg width="24px" height="24px" viewBox="0 0 24 24" version="1.1" xmlns="http://www.w3.org/2000/svg" xmlns:xlink="http://www.w3.org/1999/xlink">
    <!-- Generator: Sketch 55.1 (78136) - https://sketchapp.com -->
    <title>Group 2</title>
    <desc>Created with Sketch.</desc>
    <g id="Page-1" stroke="none" stroke-width="1" fill="none" fill-rule="evenodd">
        <g id="Artboard" transform="translate(-980.000000, -988.000000)">
            <g id="noun_Video_896580" transform="translate(540.000000, 919.000000)">
                <g id="Group-4">
                    <g id="Group-2" transform="translate(440.000000, 69.000000)">
                        <circle id="Oval-Copy-2" fill="#F13B62" cx="12" cy="12" r="12"></circle>
                        <g id="noun_cancel_167930-copy" transform="translate(7.854545, 7.854545)" fill="#FFFFFF" fill-rule="nonzero">
                            <path d="M8.13061489,7.3557226 L4.92034684,4.14545455 L8.13061489,0.935186487 C8.34434049,0.721460891 8.34434049,0.374019793 8.13061489,0.160294197 C7.9168893,-0.0534313991 7.5694482,-0.0534313991 7.3557226,0.160294197 L4.14545455,3.37056226 L0.935186487,0.160294197 C0.721460891,-0.0534313991 0.374019793,-0.0534313991 0.160294197,0.160294197 C-0.0534313991,0.374019793 -0.0534313991,0.721460891 0.160294197,0.935186487 L3.37056226,4.14545455 L0.160294197,7.3557226 C-0.0534313991,7.5694482 -0.0534313991,7.9168893 0.160294197,8.13061489 C0.374019793,8.34434049 0.721460891,8.34434049 0.935186487,8.13061489 L4.14545455,4.92034684 L7.3557226,8.13061489 C7.5694482,8.34434049 7.9168893,8.34434049 8.13061489,8.13061489 C8.34434049,7.9168893 8.34434049,7.5694482 8.13061489,7.3557226 Z" id="Path"></path>
                        </g>
                    </g>
                </g>
            </g>
        </g>
    </g>
</svg>