<?xml version="1.0" encoding="UTF-8"?>
<svg  viewBox="0 0 26 21" version="1.1" xmlns="http://www.w3.org/2000/svg" xmlns:xlink="http://www.w3.org/1999/xlink">
    <!-- Generator: Sketch 59.1 (86144) - https://sketch.com -->
    <title>Path</title>
    <desc>Created with Sketch.</desc>
    <g >
        <g id="Desktop-HD" transform="translate(-1167.000000, -277.000000)" style="fill:currentColor; stroke:currentColor; stroke: none">
            <path d="M1174.2381,277 C1174.58119,276.99916 1174.91418,277.216697 1175.04326,277.525889 C1175.17233,277.835082 1175.0895,278.216817 1174.84296,278.448896 L1169.94991,283.208292 L1185.30616,283.208292 C1189.30977,283.208292 1192.56449,286.374095 1192.56449,290.268341 C1192.56449,294.16263 1189.30977,297.319707 1185.30616,297.319707 L1168.91171,297.319707 C1168.45384,297.325819 1168.0327,296.922054 1168.0327,296.476645 C1168.0327,296.031235 1168.45384,295.627358 1168.91171,295.633652 L1185.30616,295.633652 C1188.37948,295.633652 1190.83116,293.257762 1190.83116,290.268341 C1190.83116,287.278949 1188.37948,284.894277 1185.30616,284.894277 L1169.94991,284.894277 L1174.84296,289.653659 C1175.1644,289.966325 1175.1644,290.535261 1174.84296,290.847899 C1174.52153,291.160565 1173.93662,291.160565 1173.61519,290.847899 L1167.24157,284.648404 C1166.91948,284.336126 1166.91948,283.766443 1167.24157,283.454165 L1173.61519,277.254657 C1173.77667,277.09349 1174.00674,276.999435 1174.2381,277 Z" id="Path"></path>
        </g>
    </g>
</svg>
