<?xml version="1.0" encoding="utf-8"?>
<!-- Generator: Adobe Illustrator 23.1.1, SVG Export Plug-In . SVG Version: 6.00 Build 0)  -->
<svg version="1.1" id="Layer_1" xmlns="http://www.w3.org/2000/svg" xmlns:xlink="http://www.w3.org/1999/xlink" x="0px" y="0px" viewBox="0 0 30 24" style="enable-background:new 0 0 30 24;" xml:space="preserve">
   <g id="Group">
     <path style="color: white;fill:currentColor; stroke:currentColor; stroke: none" id="Shape" class="st0" d="M15,0.1c2.3,0,4.7,0.9,6.5,2.6c1.3,1.3,2.1,2.8,2.5,4.5c3.5,0.6,6.1,3.5,6.1,7
					c0,3.9-3.4,7.2-7.5,7.2h-3.6c-0.4,0-0.7-0.2-0.9-0.5c-0.2-0.3-0.2-0.7,0-0.9c0.2-0.3,0.5-0.5,0.9-0.5h3.6c3.1,0,5.5-2.4,5.5-5.3
					c0-2.8-2.2-5-5-5.3c-0.5,0-0.8-0.4-0.9-0.8C22,6.6,21.3,5.1,20.1,4c-1.4-1.3-3.2-2-5.1-2s-3.7,0.7-5.1,2
					C8.3,5.5,7.6,7.6,7.9,9.7c0,0.3-0.1,0.5-0.2,0.7c-0.2,0.2-0.5,0.3-0.7,0.3H6.5C4,10.7,2,12.6,2,15.1s2,4.4,4.6,4.4h4.6
					c0.4,0,0.7,0.2,0.9,0.5c0.2,0.3,0.2,0.7,0,0.9c-0.2,0.3-0.5,0.5-0.9,0.5H6.5c-3.6,0-6.5-2.8-6.5-6.2c0-3.2,2.6-5.9,5.9-6.2
					c0-2.3,0.8-4.5,2.6-6.2C10.3,1,12.7,0.1,15,0.1z M15,10.7c0.3,0,0.5,0.1,0.7,0.2l3.6,3.1c0.4,0.4,0.4,1,0.1,1.3
					c-0.3,0.4-1,0.4-1.4,0.1L16,13.8v9.1c0,0.5-0.4,0.9-1,0.9c-0.5,0-1-0.4-1-0.9v-9.1l-1.9,1.7c-0.4,0.3-1,0.3-1.4-0.1
					c-0.4-0.4-0.3-1,0.1-1.3l3.6-3.1C14.5,10.8,14.7,10.7,15,10.7z" />
   </g>
</svg>
