<?xml version="1.0" encoding="utf-8"?>
<!-- Generator: Adobe Illustrator 23.1.1, SVG Export Plug-In . SVG Version: 6.00 Build 0)  -->
<svg version="1.1" id="Layer_1" xmlns="http://www.w3.org/2000/svg" xmlns:xlink="http://www.w3.org/1999/xlink" x="0px" y="0px"
	 viewBox="0 0 33 22" style="enable-background:new 0 0 33 22;" xml:space="preserve">
<title>noun_Video_1268408</title>
<desc>Created with Sketch.</desc>

		<g>
			<path style="fill:currentColor; stroke:currentColor; stroke-width:0" d="M3.9,22h15.6c2.1,0,3.9-1.8,3.9-3.9v-2l7.7,3.2c0.4,0.2,0.9,0.1,1.3-0.1s0.6-0.7,0.6-1.2V4.1
				c0-0.5-0.2-0.9-0.6-1.2C32,2.6,31.5,2.6,31,2.8L23.3,6v-2c0-2.2-1.7-3.9-3.9-3.9H3.9C1.7,0,0,1.8,0,3.9v14.2
				C0,20.2,1.7,22,3.9,22z M31.5,3.9c0.1,0,0.1,0,0.2,0c0.1,0,0.1,0.1,0.1,0.2v13.8c0,0.1,0,0.1-0.1,0.2c-0.1,0-0.1,0-0.2,0
				l-8.2-3.4V7.3L31.5,3.9z M1.2,3.9c0-1.5,1.2-2.7,2.7-2.7h15.6c1.5,0,2.7,1.2,2.7,2.7v14.2c0,1.5-1.2,2.7-2.7,2.7H3.9
				c-1.5,0-2.7-1.2-2.7-2.7V3.9z"/>
</g>
</svg>
